<svg width="69" height="40" viewBox="0 0 69 40" fill="none" xmlns="http://www.w3.org/2000/svg">
<g clip-path="url(#clip0_136_100)">
<path d="M21.6108 4.80709C21.0076 6.12867 20.4481 7.32885 19.9493 8.37142C19.663 8.95553 19.5779 9.61786 19.7074 10.2553C19.8396 10.9315 20.1561 11.4118 20.6442 11.6812C20.8748 11.8151 21.1363 11.8867 21.403 11.8889C22.0115 11.8889 22.6062 11.5641 23.1742 10.9251C23.2249 10.9923 23.2816 11.0547 23.3437 11.1115C23.6037 11.3543 23.8073 11.4842 23.9831 11.5226C24.484 11.644 25.0488 11.447 25.6542 10.94C25.7607 10.8559 25.8609 10.7601 25.9664 10.6578C25.9928 10.7996 26.0473 10.9346 26.1267 11.0549C26.2062 11.1753 26.3089 11.2785 26.4289 11.3586C26.5969 11.4709 26.7948 11.5303 26.997 11.529C27.5405 11.529 28.1693 11.2776 28.9291 10.7622C29.1259 10.6258 29.3135 10.4768 29.4908 10.316C29.5034 10.5037 29.5527 10.6871 29.6357 10.8559C29.7316 11.053 29.8798 11.22 30.0642 11.3386C30.2485 11.4573 30.462 11.5231 30.6812 11.529H30.7259C31.279 11.529 31.9121 11.2734 32.6037 10.7686C32.7188 10.6845 32.8361 10.5929 32.9512 10.4938C32.974 10.6197 33.0149 10.7417 33.0727 10.8559C33.1684 11.0529 33.3164 11.2198 33.5006 11.3385C33.6848 11.4572 33.898 11.5231 34.1171 11.529H34.1608C34.716 11.529 35.3469 11.2734 36.0407 10.7686C36.7345 10.2638 37.3803 9.52475 37.9984 8.54394C38.0539 8.46608 38.0909 8.37656 38.1064 8.28223C38.1219 8.1879 38.1156 8.09128 38.088 7.99976C38.0408 7.82167 37.9261 7.6689 37.7682 7.57379C37.6911 7.52689 37.6054 7.49569 37.5162 7.48199C37.4269 7.46828 37.3358 7.47233 37.2482 7.49392C37.0699 7.53563 36.9137 7.64235 36.8102 7.79317C36.565 8.20369 36.2836 8.59146 35.9693 8.95181C35.7523 9.20768 35.511 9.44199 35.2489 9.65147C35.0739 9.78543 34.8866 9.90239 34.6894 10.0008C34.5835 10.0606 34.4687 10.103 34.3494 10.1264H34.3323C34.3199 10.0265 34.3138 9.9258 34.3142 9.82506C34.3142 9.60142 34.391 9.2468 34.5423 8.76758C34.7052 8.25596 34.9143 7.76015 35.1668 7.28626C36.3391 4.99558 36.9732 3.66548 37.1181 3.19478C37.1589 3.01814 37.1366 2.83284 37.0553 2.67083C37.0134 2.58549 36.9537 2.51014 36.8801 2.44988C36.8066 2.38962 36.7209 2.34585 36.629 2.32153C36.5391 2.29551 36.4449 2.28822 36.3521 2.30013C36.2594 2.31204 36.1701 2.34288 36.0897 2.39075C35.9443 2.47654 35.8317 2.6085 35.77 2.76561C35.7592 2.78571 35.7464 2.80463 35.7316 2.82205C35.692 2.87358 35.6564 2.92805 35.6251 2.98499C35.5952 3.03717 35.5515 3.10852 35.4929 3.19797C35.4343 3.28743 35.3629 3.42374 35.2936 3.56218C35.2244 3.70062 35.1466 3.86569 35.0549 4.0627C34.9633 4.25971 34.8641 4.46844 34.7533 4.70166C34.6425 4.93488 34.5103 5.21815 34.3675 5.54083C34.2247 5.8635 34.0787 6.20535 33.9295 6.56317C33.7601 6.95719 33.6151 7.32566 33.4872 7.6707C33.4481 7.7079 33.4125 7.74853 33.3807 7.7921C33.1297 8.2024 32.843 8.58977 32.5238 8.94968C32.3071 9.2058 32.0658 9.44013 31.8034 9.64934C31.6286 9.78303 31.4416 9.89998 31.2449 9.99864C31.1389 10.0589 31.0237 10.1013 30.9039 10.1243H30.8869C30.8758 10.0242 30.8708 9.9236 30.8719 9.82293C30.8719 9.59929 30.9476 9.24467 31.0968 8.76545C31.26 8.25361 31.4698 7.75777 31.7235 7.28413C32.8957 4.99345 33.5277 3.66335 33.6727 3.19265C33.715 3.0161 33.6927 2.83025 33.6098 2.6687C33.568 2.58332 33.5083 2.50794 33.4347 2.44767C33.3611 2.3874 33.2755 2.34365 33.1835 2.3194C33.0937 2.29331 32.9994 2.286 32.9067 2.2979C32.8139 2.30981 32.7245 2.3407 32.6442 2.38862C32.4982 2.47377 32.3855 2.60594 32.3245 2.76348C32.3133 2.78354 32.3001 2.80244 32.2851 2.81992C32.2455 2.87145 32.2098 2.92592 32.1785 2.98286C32.1487 3.03504 32.105 3.10639 32.0485 3.19584C31.992 3.2853 31.9163 3.42161 31.8471 3.56005C31.7778 3.69849 31.7 3.86356 31.6084 4.06057C31.5167 4.25758 31.4176 4.46631 31.3068 4.69953C31.1959 4.93275 31.0648 5.21602 30.921 5.5387C30.7771 5.86137 30.6332 6.20322 30.483 6.56104C30.3444 6.88052 30.2208 7.19148 30.1121 7.48007C30.0252 7.53331 29.9522 7.60628 29.8989 7.69306C29.6804 8.02305 29.439 8.33727 29.1764 8.6334C28.9789 8.86149 28.7652 9.07503 28.5369 9.27236C28.3601 9.42265 28.1724 9.55969 27.9753 9.68236C27.837 9.7747 27.6912 9.85521 27.5394 9.92303C27.4574 9.95498 27.3732 9.98587 27.2879 10.0136C27.3175 9.80043 27.3595 9.58921 27.4137 9.38098C27.4744 9.14244 27.5511 8.8975 27.6396 8.64831C27.663 8.57802 27.7355 8.37994 27.7931 8.24363C27.8346 8.14353 27.8762 8.04449 27.921 7.94226C28.9622 5.53337 29.2723 4.82413 29.3373 4.68569L29.3565 4.66652L29.3703 4.60582C29.4136 4.42692 29.3859 4.23821 29.2929 4.07935C29.1999 3.92048 29.0489 3.80381 28.8716 3.75387C28.7823 3.72704 28.6885 3.71878 28.596 3.72959C28.5034 3.74039 28.414 3.77004 28.3334 3.8167C28.2519 3.86042 28.1808 3.92105 28.1247 3.99452C28.0686 4.06799 28.029 4.15261 28.0083 4.24267C27.9689 4.36834 27.7089 4.99665 26.6922 7.26922C26.6208 7.43215 26.5515 7.5887 26.4865 7.75057C26.2733 7.98272 25.9984 8.31605 25.6403 8.7729C25.3385 9.17587 24.9925 9.54378 24.6087 9.86979C24.5325 9.95515 24.4339 10.0175 24.3241 10.0498C24.3304 9.97123 24.3495 9.89424 24.3806 9.82186C24.4669 9.53433 24.7877 8.77077 25.3398 7.55781C25.4549 7.29797 25.6478 6.93163 25.9142 6.46839C26.1806 6.00514 26.381 5.63561 26.5089 5.38002C26.786 4.74106 26.4172 4.48335 26.2446 4.40135L26.2051 4.3875C26.0812 4.35517 25.9538 4.338 25.8257 4.33639C25.6604 4.34221 25.5036 4.41121 25.3877 4.52914C25.2891 4.61875 25.1965 4.71481 25.1106 4.81667C25.0147 4.93618 24.9281 5.06293 24.8517 5.19579C24.7768 5.32343 24.7096 5.45535 24.6502 5.59088C24.6076 5.69205 24.5554 5.80387 24.4968 5.93059C24.4587 6.01453 24.416 6.0963 24.3689 6.17553C23.5941 7.57272 22.9835 8.62488 22.5348 9.30644C22.2502 9.74625 21.9881 10.0519 21.7557 10.2255C21.5426 10.381 21.436 10.3937 21.3977 10.3746C21.2591 10.3032 21.1962 10.0753 21.1685 9.89534C21.1218 9.59894 21.1656 9.29534 21.2943 9.02423C21.8687 7.86132 22.4303 6.65688 22.9653 5.44072L22.9877 5.4173L23.0048 5.38002C23.0456 5.29099 23.068 5.1946 23.0706 5.09668C23.0732 4.99876 23.0558 4.90133 23.0197 4.81028C22.9464 4.62698 22.8042 4.4797 22.6234 4.40005C22.4427 4.32041 22.2379 4.31475 22.0531 4.38431C21.8761 4.45022 21.7304 4.58022 21.6449 4.74852L21.6108 4.80709Z" fill="#192CA7"/>
<path d="M28.9004 3.40777C29.0407 3.48648 29.2024 3.51859 29.3622 3.49944C29.522 3.4803 29.6715 3.4109 29.7892 3.30127C29.861 3.23313 29.9181 3.15111 29.9571 3.06022C29.9962 2.96932 30.0163 2.87145 30.0163 2.77253C30.0163 2.67362 29.9962 2.57574 29.9571 2.48485C29.9181 2.39395 29.861 2.31194 29.7892 2.24379C29.6489 2.11301 29.4642 2.04028 29.2723 2.04028C29.0805 2.04028 28.8958 2.11301 28.7555 2.24379C28.6328 2.35685 28.5541 2.50951 28.533 2.6749C28.512 2.84028 28.55 3.00779 28.6404 3.14792C28.7058 3.25346 28.7948 3.3424 28.9004 3.40777Z" fill="#192CA7"/>
<path d="M44.5312 18.008C45.8666 18.6161 47.1955 18.8951 48.4744 18.8397C49.1876 18.8151 49.8733 18.5591 50.4279 18.1102C51.0065 17.6523 51.3636 17.09 51.484 16.4362C51.597 15.8484 51.477 15.2397 51.1494 14.7387C50.8296 14.2349 50.316 13.8303 49.635 13.5321C49.1657 13.3337 48.6621 13.2288 48.1525 13.2233C47.7096 13.2155 47.2695 13.2955 46.8577 13.4586C46.4463 13.6424 46.0634 13.8841 45.7206 14.1764C45.3729 14.4591 45.0502 14.7712 44.7561 15.1092C44.5291 15.3723 44.285 15.6843 44.0239 16.0368C43.8257 15.9303 43.5444 15.7876 43.1713 15.5906C41.9586 14.9282 40.9333 14.4 40.1191 14.023C39.1381 13.5596 38.1218 13.175 37.0797 12.8729C36.0568 12.5757 35.0092 12.3715 33.9496 12.2627C32.9369 12.1503 31.912 12.239 30.9336 12.5236C30.0355 12.7764 29.2312 13.2865 28.62 13.9911C28.1206 14.5718 27.8059 15.2881 27.7162 16.0485C27.6152 16.8015 27.7606 17.567 28.1308 18.2306C28.4679 18.8503 29.0045 19.3381 29.6537 19.615C30.3541 19.9101 31.1243 19.9992 31.8736 19.8716C32.073 19.8346 32.2506 19.7225 32.3696 19.5584C32.4886 19.3943 32.54 19.1907 32.513 18.9899C32.5007 18.8887 32.4673 18.7913 32.415 18.7038C32.3626 18.6163 32.2926 18.5407 32.2093 18.4819C32.0438 18.3618 31.8392 18.3082 31.636 18.3317C31.1982 18.4138 30.7463 18.3744 30.3294 18.2178C29.9667 18.0722 29.6655 17.8058 29.4768 17.4638C29.2694 17.0863 29.1923 16.651 29.2573 16.2253C29.316 15.7675 29.5096 15.3375 29.8136 14.99C30.339 14.3606 31.1511 13.9751 32.2253 13.8494C33.3955 13.7233 34.5788 13.8044 35.7209 14.089C37.008 14.4015 38.2584 14.8495 39.4509 15.4255C40.23 15.7876 41.2285 16.2977 42.4179 16.9409L43.117 17.3137C42.6236 18.0762 41.6655 20.1294 40.1937 23.5829C39.8911 24.3039 39.6342 24.9056 39.4264 25.3816C39.3433 23.3444 39.2633 20.6352 39.1898 17.3094C39.1899 17.1757 39.1562 17.0442 39.0918 16.9271C39.0256 16.8021 38.9236 16.6997 38.7987 16.6332C38.6781 16.567 38.54 16.5398 38.4033 16.5554C38.26 16.552 38.1189 16.5915 37.9982 16.669C37.8776 16.7464 37.783 16.8582 37.7266 16.9899L32.7646 27.4114C32.2646 28.4734 31.5447 29.4171 30.6523 30.1802C29.8368 30.884 28.8541 31.3666 27.7983 31.5817C27.0037 31.7449 26.1829 31.7314 25.394 31.5423C24.634 31.3573 23.931 30.9887 23.3468 30.4688C22.1745 29.422 21.6672 28.2133 21.7897 26.7777C21.8413 26.1517 22.034 25.5455 22.3535 25.0046C22.6462 24.4898 23.0572 24.0518 23.5524 23.7267C24.1026 23.3783 24.733 23.1766 25.3834 23.141C25.9891 23.0895 26.5968 23.2129 27.1343 23.4967C27.9027 23.9003 28.2885 24.5403 28.3152 25.4551C28.3269 25.9396 28.2278 26.3315 28.0168 26.6137C27.8329 26.8818 27.5574 27.0734 27.242 27.1526C27.0264 27.2117 26.7984 27.2088 26.5844 27.1441C26.4917 27.1162 26.4061 27.0684 26.3338 27.004C26.2614 26.9396 26.204 26.8602 26.1656 26.7713C26.1203 26.6785 26.0561 26.5962 25.9772 26.5294C25.8983 26.4627 25.8064 26.4131 25.7073 26.3837C25.6102 26.3511 25.5075 26.338 25.4052 26.3453C25.3029 26.3527 25.2031 26.3802 25.1116 26.4263C24.929 26.5175 24.79 26.6774 24.7251 26.8708C24.6602 27.0642 24.6746 27.2754 24.7652 27.4582C25.006 27.9618 25.4286 28.3557 25.9482 28.5604C26.4762 28.7797 27.0622 28.8172 27.6139 28.6669C28.0039 28.575 28.3697 28.4011 28.6871 28.1568C29.0487 27.862 29.3363 27.4867 29.5269 27.061C29.7679 26.5429 29.8819 25.9749 29.8594 25.404C29.8146 23.9131 29.1454 22.8109 27.8729 22.1304C27.0879 21.714 26.2017 21.5262 25.3151 21.5883C24.4368 21.6322 23.5833 21.8946 22.8321 22.3517C22.081 22.8089 21.456 23.4462 21.0139 24.2059C20.5739 24.9536 20.3084 25.7908 20.237 26.6553C20.1612 27.5693 20.3075 28.4881 20.6633 29.3336C21.0358 30.2061 21.5979 30.9849 22.3087 31.6136C23.5322 32.7041 24.9986 33.2579 26.6761 33.2579C27.158 33.2575 27.6384 33.2061 28.1095 33.1045C29.4048 32.8408 30.6126 32.2547 31.621 31.4006C32.6965 30.4879 33.5645 29.3562 34.1671 28.0812L37.7298 20.6001C37.8491 25.3337 37.9621 27.8618 38.074 28.3219C38.2104 28.8235 38.5493 28.9438 38.82 28.9609H38.9266C39.2644 28.9609 39.5745 28.6882 39.8783 28.1259C40.1394 27.635 40.7308 26.3156 41.6282 24.1931C43.0935 20.763 44.0463 18.7236 44.4619 18.1283L44.5312 18.008ZM45.4531 16.7375C46.0786 15.9165 46.6637 15.335 47.1934 15.0113C47.7231 14.6875 48.3358 14.663 49.0232 14.9602C50.073 15.4213 49.9909 15.9505 49.9611 16.1316C49.8823 16.4462 49.698 16.7243 49.4389 16.9196C49.1527 17.1576 48.7934 17.29 48.4211 17.2945C47.4031 17.3249 46.3906 17.1349 45.4531 16.7375Z" fill="#192CA7"/>
<path d="M18.7524 24.8513C18.357 25.7629 17.9509 26.5499 17.6675 27.3784C16.6614 30.3144 17.4543 32.784 19.9417 34.3804C20.7822 34.9061 21.6778 35.3382 22.6124 35.6689C24.8643 36.4847 27.2238 36.7179 29.6259 36.8872C29.1847 36.9649 28.7467 37.0651 28.3023 37.1172C25.151 37.49 22.1392 37.0395 19.4067 35.3718C18.5787 34.867 17.839 34.1503 17.2103 33.4017C16.233 32.2377 15.9804 30.8192 16.2735 29.3347C16.6124 27.6191 17.5428 26.2187 18.7524 24.8513Z" fill="#192CA7"/>
<path d="M20.3575 32.44C25.3963 35.9969 30.3018 35.3664 35.1604 31.8894C34.7272 32.6485 34.1261 33.2987 33.403 33.7903C30.2719 36.0075 24.8613 36.0682 21.7142 33.8819C21.1632 33.4996 20.7177 32.9639 20.2222 32.4975L20.3575 32.44Z" fill="#192CA7"/>
<path d="M16.9514 34.3772C18.0171 36.9479 23.7166 38.9564 26.3927 38.983C27.4092 39.006 28.4235 38.8797 29.4033 38.6081C34.9121 36.9798 39.0737 33.6977 41.5622 28.4295C41.5884 28.3902 41.6196 28.3544 41.6549 28.323L41.786 28.3773C41.511 29.1686 41.3288 30.012 40.9441 30.7436C38.04 36.2632 33.4573 39.3781 27.2388 39.9862C25.3323 40.1715 19.8065 38.852 18.3933 37.3803C17.5919 36.539 17.1678 35.5166 16.9514 34.3772Z" fill="#192CA7"/>
<path d="M57.338 13.6174C57.3846 13.6037 57.427 13.5787 57.4615 13.5447C57.4961 13.5107 57.5218 13.4687 57.5363 13.4225C57.5608 13.3468 57.5542 13.2645 57.5181 13.1936C57.4819 13.1227 57.4191 13.0691 57.3434 13.0444C57.256 13.0072 56.8499 13.0253 56.7498 13.0253V14.005H56.9565V13.6365L57.1206 13.6419L57.3572 14.005H57.5906L57.338 13.6174ZM57.208 13.4566H56.9565V13.202H57.2272C57.2593 13.2042 57.2893 13.219 57.3107 13.2431C57.332 13.2672 57.343 13.2988 57.3412 13.3309V13.3437C57.3402 13.3599 57.3358 13.3758 57.3285 13.3904C57.3212 13.4049 57.311 13.4178 57.2986 13.4283C57.2861 13.4389 57.2717 13.4468 57.2562 13.4517C57.2406 13.4565 57.2242 13.4582 57.208 13.4566Z" fill="#192CA7"/>
<path d="M57.1526 12.5289C56.9574 12.5289 56.7667 12.5868 56.6044 12.6951C56.4421 12.8035 56.3156 12.9575 56.2409 13.1377C56.1662 13.3179 56.1467 13.5162 56.1847 13.7074C56.2228 13.8987 56.3168 14.0744 56.4548 14.2124C56.5928 14.3503 56.7687 14.4442 56.9601 14.4822C57.1515 14.5203 57.35 14.5008 57.5303 14.4261C57.7106 14.3515 57.8647 14.2251 57.9732 14.0629C58.0816 13.9008 58.1395 13.7101 58.1395 13.5151C58.1395 13.2535 58.0355 13.0027 57.8504 12.8178C57.6654 12.6328 57.4144 12.5289 57.1526 12.5289ZM57.1526 14.318C56.9934 14.3182 56.8377 14.2712 56.7052 14.183C56.5727 14.0947 56.4694 13.9691 56.4084 13.8222C56.3474 13.6752 56.3313 13.5135 56.3624 13.3574C56.3934 13.2013 56.47 13.058 56.5826 12.9455C56.6952 12.833 56.8387 12.7564 56.9949 12.7254C57.151 12.6944 57.3129 12.7104 57.46 12.7714C57.607 12.8324 57.7327 12.9356 57.821 13.068C57.9094 13.2004 57.9564 13.3559 57.9562 13.5151C57.9563 13.6205 57.9356 13.725 57.8953 13.8225C57.855 13.92 57.7958 14.0086 57.7211 14.0832C57.6465 14.1577 57.5579 14.2169 57.4603 14.2572C57.3628 14.2975 57.2582 14.3182 57.1526 14.318Z" fill="#192CA7"/>
<path d="M57.338 13.6174C57.3846 13.6037 57.427 13.5787 57.4615 13.5447C57.4961 13.5107 57.5218 13.4687 57.5363 13.4225C57.5608 13.3468 57.5542 13.2645 57.5181 13.1936C57.4819 13.1227 57.4191 13.0691 57.3434 13.0444C57.256 13.0072 56.8499 13.0253 56.7498 13.0253V14.005H56.9565V13.6365L57.1206 13.6419L57.3572 14.005H57.5906L57.338 13.6174ZM57.208 13.4566H56.9565V13.202H57.2272C57.2593 13.2042 57.2893 13.219 57.3107 13.2431C57.332 13.2672 57.343 13.2988 57.3412 13.3309V13.3437C57.3402 13.3599 57.3358 13.3758 57.3285 13.3904C57.3212 13.4049 57.311 13.4178 57.2986 13.4283C57.2861 13.4389 57.2717 13.4468 57.2562 13.4517C57.2406 13.4565 57.2242 13.4582 57.208 13.4566Z" fill="#192CA7"/>
<path d="M57.338 13.6174C57.3846 13.6037 57.427 13.5787 57.4615 13.5447C57.4961 13.5107 57.5218 13.4687 57.5363 13.4225C57.5608 13.3468 57.5542 13.2645 57.5181 13.1936C57.4819 13.1227 57.4191 13.0691 57.3434 13.0444C57.256 13.0072 56.8499 13.0253 56.7498 13.0253V14.005H56.9565V13.6365L57.1206 13.6419L57.3572 14.005H57.5906L57.338 13.6174ZM57.208 13.4566H56.9565V13.202H57.2272C57.2593 13.2042 57.2893 13.219 57.3107 13.2431C57.332 13.2672 57.343 13.2988 57.3412 13.3309V13.3437C57.3402 13.3599 57.3358 13.3758 57.3285 13.3904C57.3212 13.4049 57.311 13.4178 57.2986 13.4283C57.2861 13.4389 57.2717 13.4468 57.2562 13.4517C57.2406 13.4565 57.2242 13.4582 57.208 13.4566Z" fill="#192CA7"/>
<path d="M26.3827 15.1645C26.3029 14.7817 26.1638 14.4138 25.9703 14.074C25.7812 13.7415 25.5389 13.4422 25.2531 13.188C24.6834 12.6718 23.9618 12.3538 23.1962 12.2817C22.3746 12.2089 21.5488 12.3645 20.8101 12.7311C20.3002 12.9555 19.8293 13.2597 19.415 13.632C19.0524 13.9481 18.7454 14.3229 18.507 14.7406C18.3102 15.1057 18.1458 15.4874 18.0157 15.8812C17.8922 16.2381 17.825 16.6121 17.8164 16.9898C17.8164 17.3039 17.8239 17.5851 17.8388 17.8247V17.8492C17.8737 18.0507 17.9837 18.2315 18.1468 18.355C18.2292 18.4206 18.3248 18.4675 18.4272 18.4926C18.5295 18.5176 18.636 18.5201 18.7394 18.4998C18.8411 18.4842 18.9387 18.4483 19.0264 18.3943C19.1141 18.3404 19.19 18.2694 19.2498 18.1857C19.3108 18.1044 19.3539 18.0111 19.3763 17.912C19.3987 17.8129 19.3999 17.7102 19.3799 17.6106C19.3681 17.534 19.3575 17.436 19.3511 17.3156C19.3542 17.1008 19.3781 16.8869 19.4225 16.6767C19.4728 16.3738 19.5605 16.0783 19.6836 15.797C19.8443 15.4688 20.0606 15.1708 20.323 14.9163C20.6492 14.5839 21.0378 14.319 21.4666 14.1368C21.937 13.8976 22.4625 13.7874 22.9895 13.8173C23.4413 13.8456 23.8694 14.0292 24.2012 14.337C24.5513 14.6493 24.7853 15.0708 24.8651 15.5329C24.9606 16.056 24.9158 16.5951 24.7351 17.0952C24.36 18.1878 23.5628 19.0206 22.3703 19.5712C20.6427 20.3741 18.6509 20.3369 16.4491 19.4647C15.0308 18.8991 13.6872 18.162 12.4484 17.2698C14.039 15.7401 15.4754 14.0579 16.7369 12.2476L18.4069 9.63959C18.9778 8.68058 19.4837 7.68441 19.9213 6.65777C20.3475 5.62372 20.5959 4.76538 20.6534 4.10193C20.711 3.43848 20.6758 2.89429 20.5468 2.48216C20.4348 2.10042 20.2238 1.75506 19.9351 1.48113C19.6154 0.857075 19.0825 0.203204 18.247 0.0509184C16.8392 -0.201471 15.0083 0.531205 14.4434 0.780399C14.3774 0.810682 14.3166 0.851306 14.2633 0.900737H14.2367C14.1738 0.895413 13.9585 0.988062 13.6591 1.12544C12.9706 1.44492 11.8388 1.99549 11.1194 2.12754C10.1512 2.3157 9.16051 2.36091 8.17911 2.26172C7.36456 2.18127 6.56471 1.99068 5.80148 1.69518C5.0375 1.38961 4.20918 1.27979 3.39188 1.3757C2.6164 1.44738 1.87865 1.74345 1.26896 2.22764C0.212828 3.08918 -0.187884 4.31811 0.0764156 5.87718C0.151489 6.40943 0.329583 6.92197 0.600751 7.38619C0.818612 7.76608 1.10391 8.10313 1.44267 8.38084C1.74737 8.61558 2.08536 8.80365 2.44552 8.93886C2.7488 9.05955 3.06382 9.14841 3.38549 9.20403C3.64372 9.23866 3.90398 9.25609 4.16453 9.25621C4.32475 9.26004 4.48503 9.25221 4.64411 9.23278C4.84569 9.19854 5.02647 9.0884 5.14926 8.92502C5.21352 8.84526 5.2599 8.75265 5.28527 8.65344C5.31064 8.55423 5.31441 8.45074 5.29633 8.34995C5.27702 8.21625 5.22094 8.09054 5.13434 7.98681C5.05285 7.88603 4.94881 7.80578 4.83061 7.75253C4.69734 7.69165 4.5492 7.67092 4.40432 7.69289C4.30685 7.70764 4.20866 7.71724 4.11018 7.72164C3.90587 7.71915 3.70234 7.69595 3.50272 7.65242C3.22938 7.60403 2.96494 7.51463 2.71834 7.38725C2.44927 7.22748 2.21976 7.00906 2.04694 6.74829C1.81466 6.41035 1.66133 6.02457 1.59827 5.61946C1.42775 4.63333 1.6377 3.91557 2.2377 3.42996C2.63762 3.13147 3.11384 2.95205 3.61142 2.9124C4.15954 2.85082 4.71444 2.92205 5.22919 3.12006C6.05491 3.44971 6.92195 3.66469 7.80611 3.75902C8.58731 3.85567 9.37591 3.87813 10.1614 3.82611C8.53368 5.39301 7.05126 7.10388 5.73221 8.9378C3.84055 11.5618 2.5766 14.0825 1.96275 16.4317C1.34036 18.8353 1.55244 20.5371 2.59259 21.4881C2.96772 21.831 3.47714 22.0056 4.10378 22.0056C4.30497 22.0055 4.50587 21.9905 4.70485 21.9609C5.55743 21.831 6.53577 21.4699 7.6228 20.8832C8.80025 20.2328 9.91231 19.4707 10.9436 18.6074C11.0416 18.5318 11.1503 18.4445 11.2708 18.3444C12.694 19.3818 14.2408 20.2382 15.8758 20.8938C17.1017 21.3928 18.4111 21.6555 19.7348 21.668C20.8703 21.6772 21.9945 21.4407 23.03 20.9748C23.774 20.6431 24.4454 20.1684 25.0058 19.5776C25.5391 19.0117 25.9453 18.3386 26.1973 17.6032C26.4853 16.8234 26.5495 15.9788 26.3827 15.1645ZM18.9887 4.62907C18.8822 5.08699 18.6381 5.73554 18.2704 6.5566C17.8353 7.50869 17.3423 8.43336 16.7944 9.32543C16.4747 9.84938 16.1102 10.4021 15.718 10.9697C14.0406 11.5607 12.734 11.6087 11.8303 11.1103C11.1717 10.762 10.8274 10.3243 10.7763 9.7759C10.7251 9.09754 11.0843 8.22429 11.842 7.18066C12.6232 6.10933 13.739 4.99009 15.1532 3.85167C16.3255 2.91666 17.372 2.4417 18.2768 2.4417C18.5486 2.4417 18.75 2.50027 18.8864 2.62487C18.9537 2.68396 19.0078 2.75653 19.0452 2.83785C19.0665 2.87726 19.1134 3.0157 19.1315 3.45126C19.135 3.84838 19.087 4.24427 18.9887 4.62907ZM7.05264 19.487C6.12901 19.9947 5.27288 20.3053 4.48425 20.4189C3.91941 20.4977 3.70733 20.4018 3.63806 20.3432C3.29916 20.0312 3.1425 19.4466 3.17128 18.6074C3.20929 18.5546 3.23679 18.4949 3.25227 18.4317C3.27749 18.3496 3.30884 18.2695 3.34606 18.1921C3.45185 17.9849 3.57634 17.7878 3.71799 17.6032C3.91653 17.3334 4.14105 17.0837 4.38833 16.8577C4.68035 16.6075 5.01351 16.4097 5.37306 16.2731C5.80821 16.0981 6.27348 16.0102 6.74252 16.0143C7.30592 16.0038 7.86418 16.123 8.37414 16.3625C8.93892 16.6583 9.47824 17.0002 9.98658 17.3849C9.08104 18.1848 8.09536 18.8892 7.04518 19.487H7.05264ZM11.1621 16.3252C10.6196 15.9238 10.188 15.6181 9.87361 15.4169C9.44457 15.1558 8.98866 14.9415 8.51375 14.7779C7.94608 14.5734 7.34701 14.4696 6.74358 14.4712C5.76381 14.4591 4.80147 14.7305 3.9727 15.2529C4.64943 13.5149 5.66081 11.7024 6.9887 9.85364C7.62813 8.96336 8.30913 8.10608 9.00505 7.30525C9.70096 6.50442 10.3095 5.84842 10.8168 5.35323C11.3241 4.85803 11.8218 4.39479 12.3152 3.98266C12.3717 3.93474 12.4218 3.88894 12.4782 3.84528C12.5268 3.90147 12.584 3.94963 12.6477 3.98798L12.1681 4.43845C11.7591 4.82273 11.3787 5.23631 11.0299 5.6759C10.6974 6.10188 10.3777 6.54808 10.0772 7.00814C9.78041 7.46287 9.54868 7.9568 9.38871 8.47562C9.23858 8.93911 9.18243 9.42785 9.22352 9.91328C9.33009 11.008 9.95354 11.8717 11.0811 12.4787C11.9337 12.943 12.993 13.0921 14.2409 12.9249C13.2874 14.1221 12.2591 15.2578 11.1621 16.3252Z" fill="#192CA7"/>
<path d="M58.1298 23.8652C58.116 23.7781 58.0848 23.6947 58.0381 23.6199C57.9914 23.5451 57.9302 23.4804 57.858 23.4296C57.7854 23.3754 57.7018 23.3377 57.613 23.3193C57.5243 23.3009 57.4326 23.3022 57.3444 23.3231C57.1775 23.3564 57.0292 23.4511 56.9287 23.5883C56.7657 23.8066 56.5898 24.0228 56.4108 24.2273C56.2504 24.4142 56.0796 24.592 55.8992 24.7597C55.7372 24.9096 55.5664 25.0497 55.3877 25.1793C55.2097 25.3082 55.0467 25.42 54.9039 25.5073C54.7611 25.5946 54.615 25.6809 54.4776 25.7544C54.3401 25.8279 54.2165 25.8864 54.1269 25.929C54.0801 25.9493 54.0342 25.9716 53.9873 25.994C54.0223 25.6415 54.0937 25.2935 54.2005 24.9557C54.4105 24.2469 54.6986 23.5637 55.0595 22.9185C55.2918 22.4925 55.5124 22.0953 55.7202 21.7161H56.5312C56.6185 21.7033 56.7022 21.6726 56.7771 21.6258C56.8519 21.5791 56.9162 21.5174 56.966 21.4446C57.0738 21.3076 57.1327 21.1386 57.1334 20.9643C57.1334 20.599 56.9064 20.3818 56.5291 20.3818H56.5024C56.5216 20.3424 56.5397 20.3062 56.5557 20.2678C56.6186 20.1273 56.6762 19.9984 56.7252 19.8845C56.7742 19.7705 56.819 19.664 56.8552 19.5703C56.8914 19.4766 56.9287 19.3893 56.9682 19.2956C57.0449 19.1326 57.0549 18.9461 56.9959 18.7759C56.968 18.693 56.923 18.6169 56.8637 18.5527C56.8043 18.4885 56.7321 18.4375 56.6516 18.4031C56.4941 18.3335 56.3156 18.3278 56.1539 18.3872C56.0721 18.4147 55.9966 18.4583 55.9319 18.5154C55.8671 18.5724 55.8143 18.6418 55.7767 18.7194C55.4591 19.3385 55.1792 19.8838 54.9369 20.3552C54.7574 20.3821 54.5757 20.391 54.3944 20.3818C54.2221 20.3785 54.0553 20.4427 53.9298 20.5607C53.8029 20.676 53.7236 20.8343 53.7071 21.0048V21.0271C53.7062 21.1378 53.731 21.2471 53.7795 21.3466C53.8327 21.4524 53.9147 21.541 54.0161 21.6022C54.0828 21.642 54.1545 21.6728 54.2293 21.6938C54.0928 21.9419 53.9831 22.1379 53.8946 22.2784C53.8232 22.4084 53.7518 22.5425 53.6815 22.682C53.5511 22.6706 53.4204 22.6988 53.3063 22.763C52.8086 23.0058 52.4282 23.189 52.1649 23.3093C51.9313 22.8247 51.6138 22.3852 51.2271 22.0111C51.0265 21.8298 50.8405 21.6328 50.6708 21.4222C50.9767 21.0623 52.3237 19.9313 53.0644 19.566C53.187 19.5027 53.2887 19.4053 53.3572 19.2856C53.4257 19.1659 53.4582 19.0289 53.4506 18.8912C53.4431 18.7535 53.3959 18.6209 53.3147 18.5094C53.2335 18.3979 53.1218 18.3122 52.993 18.2626C52.9031 18.2272 52.8067 18.211 52.7101 18.2153C52.6135 18.2195 52.5189 18.2439 52.4324 18.2871C51.5159 18.7397 50.0324 19.9782 49.6285 20.4425C49.0513 20.9784 48.5332 21.5746 48.0832 22.2209C47.7102 22.7534 47.1337 23.7725 46.9738 23.911L46.6349 24.3039L46.1266 24.8588L46.1138 24.8726L46.4793 26.3231C46.4793 26.3231 47.6697 25.4519 48.8388 23.6479C48.8783 23.5862 48.9092 23.5276 48.939 23.4722C49.1641 23.1077 49.4133 22.7587 49.685 22.4275C49.8656 22.6496 50.0596 22.8605 50.2658 23.059C50.5377 23.3074 50.7598 23.6052 50.9202 23.9365C50.3735 24.2305 49.8033 24.5702 49.215 24.9514C48.8628 25.1696 48.561 25.46 48.3294 25.8034C48.0918 26.1676 48.0523 26.5222 48.2079 26.8502C48.3827 27.2538 48.7664 27.4593 49.345 27.4593C49.697 27.4457 50.0465 27.394 50.3873 27.3049C51.5436 27.0217 52.2523 26.4104 52.4996 25.4945C52.5651 25.2344 52.5864 24.9651 52.5625 24.698C52.669 24.6447 52.8012 24.5798 52.9685 24.4956C52.9088 24.6799 52.8619 24.863 52.8118 25.0462C52.692 25.4816 52.6512 25.935 52.6914 26.3848C52.7404 26.8204 52.9046 27.1303 53.1806 27.3017C53.3384 27.4068 53.5238 27.4627 53.7134 27.4625C54.1802 27.4625 54.8389 27.1793 55.7255 26.5946C56.6153 26.0029 57.3851 25.2485 57.9945 24.371C58.0534 24.3022 58.0961 24.221 58.1195 24.1334C58.1429 24.0459 58.1465 23.9542 58.1298 23.8652ZM51.3486 25.0739C51.3471 25.1118 51.341 25.1493 51.3305 25.1857C51.2154 25.65 50.7976 25.9663 50.0825 26.1346C49.9017 26.1865 49.7166 26.2222 49.5294 26.2411C49.5241 26.2422 49.5187 26.2422 49.5134 26.2411C49.6261 26.1406 49.7462 26.0488 49.8726 25.9663C50.3492 25.638 50.8425 25.3348 51.3507 25.0579C51.3517 25.0633 51.351 25.0689 51.3486 25.0739Z" fill="#192CA7"/>
<path d="M45.0343 25.7341C44.4076 26.1228 43.9334 26.2496 43.6275 26.1143C43.4329 26.0088 43.2866 25.8321 43.2194 25.6212C43.1274 25.4145 43.0942 25.1864 43.1234 24.962C43.1394 24.8822 43.1607 24.797 43.1884 24.7043C43.6702 24.9173 44.2446 24.9333 44.8936 24.764C45.5489 24.5807 46.1367 24.2107 46.5849 23.699C47.0954 23.1453 47.3309 22.5872 47.3053 22.0409C47.3008 21.8832 47.2647 21.728 47.1992 21.5844C47.1337 21.4408 47.04 21.3118 46.9238 21.205C46.6762 20.9859 46.3661 20.85 46.0371 20.8163C45.4867 20.7254 44.9216 20.8131 44.4247 21.0665C43.9266 21.3083 43.4858 21.6536 43.132 22.0793C42.797 22.4843 42.5088 22.9259 42.273 23.3955C42.0555 23.8132 41.8997 24.2601 41.8105 24.7224C41.7376 25.2296 41.8115 25.7469 42.0236 26.2133C42.2161 26.7014 42.5938 27.0937 43.0744 27.3049C43.3201 27.4172 43.5875 27.4743 43.8577 27.4721C44.414 27.4721 45.0705 27.2453 45.8112 26.7969C46.0443 26.6551 46.2669 26.4968 46.4773 26.323L46.1128 24.8715C45.7848 25.1964 45.4233 25.4855 45.0343 25.7341ZM44.673 22.4701C45.0545 22.1783 45.4382 22.0665 45.8453 22.1293C45.8932 22.1356 45.9403 22.1466 45.986 22.1623C45.9774 22.2688 45.9039 22.4818 45.5597 22.8545C45.2932 23.1564 44.9449 23.3746 44.5568 23.4829C44.1934 23.5798 43.9174 23.5893 43.7245 23.5127C43.9789 23.1137 44.2997 22.7611 44.673 22.4701Z" fill="#192CA7"/>
<path d="M56.8989 6.28946C56.6985 6.19307 56.5178 6.06016 56.3661 5.89757C56.2477 5.77019 56.1682 5.61169 56.1369 5.44071C56.1123 5.27516 56.1414 5.10608 56.2201 4.95829L56.705 5.20749C56.6762 5.26229 56.6619 5.32351 56.6634 5.38537C56.6649 5.44723 56.6821 5.50769 56.7135 5.56105C56.7975 5.68535 56.9145 5.78381 57.0513 5.84539C57.1311 5.88833 57.2182 5.91613 57.3082 5.92739C57.3822 5.93689 57.4575 5.92849 57.5277 5.90289C57.5901 5.88267 57.6426 5.83971 57.6748 5.78255C57.6933 5.7504 57.7038 5.71428 57.7055 5.67723C57.7071 5.64017 57.6999 5.60325 57.6844 5.56957C57.6351 5.47628 57.5685 5.39316 57.4883 5.32463L57.078 4.89866C56.9397 4.76494 56.8365 4.59926 56.7774 4.41624C56.7341 4.25971 56.752 4.09255 56.8275 3.94874C56.8759 3.85317 56.9482 3.7718 57.0375 3.71262C57.1269 3.65344 57.23 3.61847 57.3369 3.61115C57.6151 3.59045 57.8932 3.65351 58.1352 3.79219C58.4346 3.94661 58.6318 4.12871 58.7288 4.33957C58.7763 4.43482 58.8011 4.53982 58.8011 4.64627C58.8011 4.75272 58.7763 4.85772 58.7288 4.95297L58.2364 4.69952C58.253 4.657 58.2595 4.61123 58.2554 4.56578C58.2513 4.52034 58.2368 4.47645 58.213 4.43754C58.1414 4.33327 58.0421 4.25102 57.9263 4.20006C57.8205 4.13715 57.6968 4.11095 57.5746 4.12552C57.5309 4.12929 57.4888 4.14344 57.4517 4.16678C57.4147 4.19012 57.3837 4.22198 57.3614 4.2597C57.2986 4.38536 57.3614 4.53339 57.5394 4.70484L57.9732 5.17235C58.1098 5.30113 58.2161 5.45863 58.2844 5.63346C58.3106 5.70665 58.3209 5.78458 58.3147 5.86207C58.3084 5.93955 58.2858 6.01483 58.2481 6.08287C58.1812 6.20816 58.0754 6.30833 57.9465 6.36827C57.7964 6.438 57.6311 6.46912 57.4659 6.45879C57.2667 6.44511 57.073 6.38726 56.8989 6.28946Z" fill="#192CA7"/>
<path d="M58.3142 7.02214L60.4233 3.92212L60.9071 4.25118L58.8012 7.35014L58.3142 7.02214Z" fill="#192CA7"/>
<path d="M60.0854 8.47262C59.9213 8.32891 59.8006 8.14229 59.7369 7.93376C59.6754 7.71798 59.6724 7.48973 59.7284 7.27244C59.8007 7.02731 59.9256 6.80088 60.0943 6.60887C60.2631 6.41687 60.4717 6.26392 60.7056 6.16065C60.9093 6.07767 61.1323 6.05363 61.349 6.0913C61.5658 6.12896 61.7675 6.2268 61.9312 6.37363C62.0698 6.48509 62.1768 6.63078 62.2416 6.79627C62.3065 6.96177 62.327 7.14133 62.301 7.31716C62.2739 7.48956 62.213 7.65492 62.122 7.80384C62.0256 7.96425 61.904 8.10808 61.7618 8.22981L60.3657 7.00301L60.5788 6.75914L61.6701 7.71758L61.5199 7.69628C61.5847 7.62921 61.6426 7.5557 61.6925 7.4769C61.7413 7.40092 61.7773 7.31746 61.7991 7.22984C61.8188 7.1455 61.8166 7.0575 61.7927 6.97426C61.761 6.87916 61.7025 6.79522 61.6243 6.73251C61.5312 6.64514 61.4123 6.59022 61.2854 6.57597C61.1626 6.56484 61.0391 6.58885 60.9294 6.64519C60.8073 6.70846 60.6987 6.79491 60.6097 6.89971L60.4552 7.07542C60.3583 7.18207 60.2818 7.3055 60.2293 7.43963C60.1849 7.5535 60.1742 7.67768 60.1984 7.79745C60.232 7.91741 60.2989 8.02544 60.3912 8.10909C60.4836 8.19274 60.5978 8.24862 60.7206 8.27028C60.7783 8.2748 60.8363 8.26771 60.8912 8.24942C60.9461 8.23112 60.9968 8.20201 61.0403 8.16379L61.4868 8.55568C61.3597 8.66277 61.2076 8.73604 61.0445 8.76867C60.8813 8.79921 60.7131 8.78971 60.5543 8.74098C60.3809 8.68548 60.2211 8.59403 60.0854 8.47262Z" fill="#192CA7"/>
<path d="M61.8141 10.265C61.6739 10.0981 61.5847 9.89437 61.5573 9.67818C61.5294 9.45566 61.5621 9.22975 61.6521 9.02431C61.7536 8.79185 61.9106 8.58781 62.1093 8.43008C62.3056 8.25979 62.5404 8.1399 62.7935 8.08078C63.0074 8.03219 63.2307 8.04455 63.4379 8.11646C63.6452 8.18838 63.8281 8.31696 63.9658 8.48758C64.0897 8.62903 64.1752 8.79991 64.2141 8.98384C64.2424 9.14907 64.2318 9.3186 64.1832 9.47904C64.1298 9.64638 64.044 9.80161 63.9306 9.93589C63.8082 10.0779 63.6644 10.2001 63.5043 10.298L62.3203 8.86563L62.5772 8.65797L63.5022 9.77615L63.3551 9.72291C63.4305 9.66788 63.4998 9.60505 63.5619 9.53548C63.6229 9.46836 63.6719 9.39128 63.7068 9.30758C63.7401 9.22787 63.7515 9.14076 63.7399 9.05519C63.7241 8.95662 63.6805 8.86461 63.6141 8.79002C63.5358 8.6872 63.4262 8.61248 63.3019 8.57704C63.1826 8.54731 63.0574 8.55174 62.9406 8.58982C62.8091 8.6321 62.6874 8.70017 62.5825 8.79002L62.4024 8.93912C62.2896 9.0273 62.1942 9.13563 62.121 9.2586C62.0595 9.36412 62.0289 9.48477 62.0326 9.60683C62.0437 9.73453 62.0952 9.85537 62.1797 9.95187C62.2547 10.0491 62.3583 10.1206 62.4759 10.1563C62.5322 10.1708 62.5907 10.1736 62.6481 10.1647C62.7055 10.1557 62.7604 10.1351 62.8095 10.1042L63.1889 10.5631C63.0468 10.6483 62.8855 10.6963 62.72 10.7026C62.5538 10.7069 62.3891 10.6703 62.2404 10.5962C62.0764 10.5172 61.9311 10.4043 61.8141 10.265Z" fill="#192CA7"/>
<path d="M61.7117 12.0902L65.1348 10.1488L65.3735 10.5748L64.8641 10.9805L62.0015 12.5982L61.7117 12.0902ZM63.4168 12.6099C63.3263 12.4606 63.279 12.2892 63.2804 12.1147C63.2884 11.9452 63.35 11.7826 63.4563 11.6504C63.593 11.4822 63.7618 11.3428 63.9529 11.2404L64.0595 11.431C63.956 11.4856 63.8708 11.5693 63.8143 11.6717C63.7638 11.7645 63.7405 11.8697 63.7472 11.9752C63.7517 12.0874 63.7851 12.1967 63.844 12.2924C63.903 12.388 63.9857 12.4669 64.084 12.5215C64.2017 12.587 64.3351 12.6194 64.4698 12.6152C64.637 12.6064 64.7993 12.5559 64.9419 12.4682C65.0831 12.3923 65.2057 12.2861 65.301 12.1573C65.3794 12.0501 65.4262 11.9232 65.4364 11.7909C65.4423 11.6726 65.4166 11.5547 65.362 11.4495C65.3073 11.3444 65.2255 11.2556 65.1252 11.1924C65.0314 11.1365 64.9242 11.1071 64.8151 11.1072C64.6868 11.1091 64.5615 11.1459 64.4527 11.2137L64.3461 11.0242C64.5429 10.9031 64.7643 10.8274 64.9941 10.8027C65.1724 10.7865 65.3516 10.8236 65.5088 10.9092C65.654 10.9914 65.774 11.1113 65.8563 11.2563C65.9587 11.4369 66.0096 11.6421 66.0033 11.8495C65.9937 12.0704 65.9261 12.2849 65.8072 12.4714C65.6627 12.6877 65.4678 12.8657 65.2392 12.99C65.015 13.1253 64.7602 13.2015 64.4985 13.2116C64.2753 13.2191 64.0543 13.1657 63.8591 13.0571C63.6707 12.9532 63.5156 12.7981 63.4115 12.6099H63.4168Z" fill="#192CA7"/>
<path d="M64.6394 15.073L68.2629 14.1018L68.4131 14.6662L65.4153 15.4734L64.7406 15.4511L64.6394 15.073ZM64.908 16.3605C64.8656 16.2029 64.8704 16.0363 64.9218 15.8813C64.9836 15.7127 65.0919 15.5651 65.2341 15.4553C65.4215 15.3148 65.6359 15.2144 65.8639 15.1604L65.9119 15.3393C65.7845 15.3708 65.6681 15.4363 65.5751 15.5288C65.4938 15.6126 65.4348 15.7155 65.4035 15.8281C65.376 15.9328 65.376 16.0428 65.4035 16.1475C65.4358 16.2687 65.5042 16.3771 65.5996 16.4585C65.7029 16.5429 65.8269 16.598 65.9588 16.6182C66.1177 16.6425 66.28 16.6312 66.4341 16.5852C66.5852 16.5489 66.7262 16.479 66.8465 16.3808C66.9495 16.2971 67.0274 16.1865 67.0714 16.0613C67.112 15.9408 67.1153 15.8109 67.081 15.6886C67.0508 15.5823 66.9956 15.4848 66.9201 15.4042C66.8391 15.3238 66.7378 15.2668 66.627 15.2392C66.4985 15.2093 66.3644 15.2133 66.238 15.2509L66.19 15.0709C66.4089 15.0058 66.6388 14.9858 66.8657 15.0123C67.0441 15.0319 67.2118 15.1067 67.3456 15.2262C67.4793 15.3458 67.5724 15.504 67.6117 15.679C67.6673 15.8782 67.6628 16.0893 67.5989 16.286C67.5324 16.4929 67.4095 16.6773 67.244 16.8185C67.0525 16.9833 66.8246 17.1005 66.579 17.1603C66.3318 17.2324 66.071 17.2448 65.8181 17.1965C65.6001 17.1541 65.3976 17.0536 65.2319 16.9058C65.072 16.7603 64.9592 16.5705 64.908 16.3605Z" fill="#192CA7"/>
<path d="M65.3481 18.9089C65.3256 18.692 65.3659 18.4731 65.4643 18.2785C65.5687 18.0798 65.7239 17.9122 65.914 17.7929C66.129 17.6583 66.3739 17.5789 66.627 17.5618C66.8853 17.5306 67.1473 17.5631 67.3901 17.6566C67.5953 17.7386 67.7735 17.8761 67.9048 18.0538C68.0341 18.2295 68.1113 18.438 68.1276 18.6555C68.151 18.8414 68.1249 19.0302 68.0519 19.2028C67.9844 19.3573 67.8792 19.4924 67.746 19.5958C67.6087 19.7034 67.451 19.782 67.2824 19.8269C67.1023 19.8753 66.9157 19.8958 66.7293 19.8876L66.5599 18.0367L66.8796 18.0069L67.0117 19.451L66.919 19.3338C67.0125 19.3312 67.1054 19.3183 67.1961 19.2955C67.2835 19.2738 67.3667 19.2378 67.4423 19.189C67.5157 19.1431 67.5751 19.0779 67.6139 19.0005C67.6567 18.91 67.6726 18.8091 67.6597 18.7098C67.6522 18.5816 67.6032 18.4594 67.5201 18.3615C67.4382 18.2697 67.3323 18.2025 67.2142 18.1677C67.0814 18.1294 66.9425 18.1168 66.805 18.1305L66.5727 18.1517C66.4291 18.1615 66.2886 18.1976 66.1581 18.2582C66.0471 18.3106 65.9535 18.3938 65.8885 18.4979C65.8297 18.6079 65.8036 18.7323 65.8133 18.8567C65.8229 18.981 65.8678 19.1 65.9428 19.1996C65.9813 19.2434 66.0283 19.2789 66.0808 19.3042C66.1334 19.3294 66.1904 19.3439 66.2487 19.3466L66.303 19.9366C66.1375 19.9271 65.977 19.8762 65.8362 19.7886C65.6972 19.6984 65.582 19.576 65.5005 19.4318C65.4127 19.2705 65.3608 19.0921 65.3481 18.9089Z" fill="#192CA7"/>
<path d="M65.3725 21.3392C65.3772 21.1956 65.4136 21.0549 65.4791 20.927C65.5406 20.8059 65.6371 20.7061 65.7561 20.6406C65.8936 20.5659 66.0502 20.534 66.2059 20.549L68.8382 20.6715L68.8126 21.254L66.2006 21.1315C65.9704 21.1209 65.8489 21.2263 65.8382 21.4446C65.8355 21.5119 65.8397 21.5794 65.851 21.6459C65.8652 21.7224 65.8848 21.7978 65.9096 21.8716L65.4929 21.9366C65.4577 21.8397 65.4281 21.7409 65.4045 21.6405C65.3797 21.5421 65.3689 21.4406 65.3725 21.3392ZM67.7533 20.2338L68.1444 20.2519L68.0645 21.9696L67.6734 21.9515L67.7533 20.2338Z" fill="#192CA7"/>
<path d="M65.1349 23.1677C65.1557 23.0251 65.2081 22.889 65.2884 22.7694C65.3635 22.6566 65.4708 22.569 65.5964 22.5181C65.7419 22.4614 65.9008 22.4484 66.0536 22.4808L68.655 22.9121L68.5591 23.4871L65.9769 23.0612C65.7488 23.0228 65.6159 23.1126 65.5783 23.3306C65.5687 23.3969 65.5655 23.4639 65.5687 23.5308C65.5729 23.6082 65.5832 23.6851 65.5996 23.7608L65.1786 23.7768C65.155 23.6765 65.1375 23.5747 65.1264 23.4722C65.1141 23.3709 65.1169 23.2682 65.1349 23.1677ZM67.6287 22.3519L68.0156 22.4148L67.7321 24.1112L67.3474 24.0484L67.6287 22.3519Z" fill="#192CA7"/>
<path d="M64.6873 24.961C64.7497 24.7516 64.8711 24.5645 65.0369 24.4221C65.2082 24.2777 65.4149 24.1818 65.6358 24.1442C65.8854 24.102 66.1416 24.1218 66.3818 24.2017C66.6314 24.2721 66.8603 24.4018 67.049 24.5797C67.2085 24.7335 67.3216 24.9291 67.3751 25.1441C67.427 25.3551 67.4193 25.5763 67.3527 25.7831C67.3019 25.9636 67.2058 26.1282 67.0735 26.2612C66.9521 26.3775 66.8038 26.462 66.6419 26.5072C66.4734 26.5539 66.2972 26.5659 66.1239 26.5424C65.9392 26.5204 65.7592 26.4686 65.5911 26.389L66.1399 24.6148L66.4511 24.7096L66.0248 26.094L65.9811 25.9492C66.0695 25.9814 66.1609 26.0046 66.2539 26.0184C66.3431 26.0339 66.4344 26.0339 66.5236 26.0184C66.6082 26.0032 66.6874 25.9665 66.7538 25.9119C66.8268 25.844 66.8792 25.7569 66.9051 25.6606C66.9461 25.539 66.9461 25.4074 66.9051 25.2858C66.8635 25.1689 66.7896 25.0663 66.6919 24.9897C66.5842 24.9031 66.4603 24.8387 66.3275 24.8001L66.1047 24.732C65.9676 24.6858 65.8229 24.6663 65.6784 24.6745C65.5558 24.6803 65.4374 24.7214 65.3374 24.7927C65.2332 24.8693 65.1581 24.9789 65.1243 25.1037C65.0828 25.2195 65.079 25.3455 65.1136 25.4636C65.1325 25.519 65.1626 25.5699 65.202 25.6131C65.2414 25.6563 65.2893 25.691 65.3427 25.7149L65.1658 26.2825C65.0152 26.2099 64.8857 26.0999 64.7896 25.9631C64.6951 25.8268 64.6351 25.6697 64.6148 25.5051C64.5988 25.3206 64.6236 25.1349 64.6873 24.961Z" fill="#192CA7"/>
<path d="M64.212 26.4902L66.6206 27.6137L66.3712 28.1462L63.9626 27.0206L64.212 26.4902ZM65.0891 27.3784C65.3544 27.4934 65.5997 27.6498 65.8159 27.8416C65.967 27.9727 66.08 28.1419 66.1431 28.3315C66.1882 28.4879 66.1742 28.6555 66.1037 28.8022C66.0861 28.8442 66.0647 28.8845 66.0397 28.9225C66.0157 28.9579 65.989 28.9914 65.9598 29.0226L65.4387 28.7607C65.473 28.7198 65.5047 28.6767 65.5335 28.6318C65.5612 28.5895 65.5861 28.5453 65.6081 28.4998C65.6689 28.3856 65.6878 28.2537 65.6614 28.127C65.6295 27.9991 65.5592 27.8839 65.46 27.7969C65.3314 27.6801 65.1845 27.5851 65.0252 27.5158L65.0891 27.3784Z" fill="#192CA7"/>
<path d="M62.2831 29.6872C62.3675 29.5685 62.4766 29.4693 62.6028 29.3965C62.72 29.3288 62.8546 29.2973 62.9896 29.306C63.1451 29.3187 63.2933 29.3768 63.4159 29.4732L65.5612 31.0003L65.2234 31.4752L63.0887 29.9566C62.9005 29.8225 62.742 29.8452 62.6134 30.0248C62.5744 30.0798 62.5412 30.1387 62.5143 30.2005C62.4857 30.2725 62.4615 30.3461 62.4419 30.421L62.0571 30.2495C62.0802 30.1491 62.1094 30.0503 62.1445 29.9535C62.1775 29.8584 62.2241 29.7687 62.2831 29.6872ZM64.8845 30.0461L65.2042 30.274L64.2056 31.6755L63.8859 31.4486L64.8845 30.0461Z" fill="#192CA7"/>
<path d="M61.0191 31.1748C61.1726 31.0098 61.3655 30.8863 61.5797 30.816C61.7918 30.7486 62.0191 30.7457 62.2329 30.8074C62.489 30.8853 62.721 31.0267 62.9075 31.2185C63.1093 31.3986 63.2629 31.6263 63.3541 31.8809C63.4236 32.0918 63.4291 32.3186 63.3701 32.5326C63.3053 32.7473 63.1906 32.9437 63.0354 33.1056C62.8802 33.2675 62.6888 33.3905 62.477 33.4644C62.2657 33.5306 62.0395 33.5328 61.8269 33.4708C61.5692 33.3899 61.3356 33.2465 61.147 33.0534C60.948 32.8751 60.7967 32.65 60.7068 32.3984C60.6359 32.188 60.6281 31.9615 60.6844 31.7467C60.7459 31.5309 60.8611 31.3342 61.0191 31.1748ZM61.3995 31.5167C61.3053 31.6076 61.2418 31.7256 61.2179 31.8542C61.194 31.9829 61.211 32.1158 61.2663 32.2344C61.3335 32.3848 61.4311 32.5197 61.553 32.6306C61.7108 32.8042 61.9212 32.9212 62.1519 32.9639C62.2452 32.9749 62.3398 32.963 62.4275 32.9293C62.5151 32.8955 62.5932 32.8409 62.655 32.7701C62.7478 32.6788 62.8115 32.5621 62.8383 32.4347C62.8615 32.3042 62.8444 32.1697 62.7892 32.0491C62.7205 31.8967 62.6211 31.76 62.4972 31.6477C62.3408 31.4758 62.1316 31.3608 61.9026 31.3207C61.81 31.3114 61.7165 31.3243 61.6299 31.3584C61.5434 31.3925 61.4662 31.4468 61.4049 31.5167H61.3995Z" fill="#192CA7"/>
<path d="M58.408 33.4709L58.8727 33.932L60.6961 36.4442L60.2187 36.7903L58.019 33.7552L58.408 33.4709ZM59.0475 32.9224C59.2189 32.7955 59.4238 32.7214 59.6368 32.7095C59.8587 32.6992 60.0794 32.7481 60.2762 32.8511C60.5025 32.9732 60.6965 33.1473 60.8421 33.3591C60.9957 33.5598 61.0995 33.7941 61.1448 34.0428C61.1831 34.2571 61.1629 34.4779 61.0862 34.6817C61.0122 34.8746 60.8824 35.0411 60.7132 35.1599C60.5713 35.2716 60.398 35.3361 60.2175 35.3443C60.0371 35.3525 59.8586 35.304 59.7072 35.2057C59.5149 35.0832 59.3499 34.9226 59.2222 34.7339L59.3768 34.6221C59.4507 34.731 59.5522 34.8185 59.6709 34.8755C59.7502 34.91 59.8357 34.928 59.9222 34.9285C60.0087 34.929 60.0944 34.9119 60.1741 34.8784C60.2538 34.8448 60.3258 34.7955 60.3859 34.7333C60.4459 34.6711 60.4928 34.5974 60.5235 34.5166C60.5677 34.3923 60.5762 34.258 60.548 34.129C60.5158 33.9769 60.4507 33.8337 60.3572 33.7094C60.2651 33.5798 60.1468 33.4709 60.0098 33.3899C59.8947 33.3219 59.7631 33.2869 59.6294 33.2888C59.5038 33.2912 59.382 33.3325 59.2809 33.407C59.1931 33.4707 59.1245 33.5572 59.0826 33.6572C59.037 33.7639 59.019 33.8804 59.0304 33.9959C59.0443 34.1262 59.0941 34.25 59.1743 34.3537L59.0176 34.4655C58.8749 34.2806 58.7728 34.0675 58.7182 33.8404C58.6766 33.6638 58.6865 33.479 58.7469 33.3079C58.8023 33.1502 58.9055 33.0136 59.0421 32.9171L59.0475 32.9224Z" fill="#192CA7"/>
<path d="M55.9356 34.8052L56.2756 35.3377L56.7424 36.3132C56.7998 36.4597 56.9069 36.5815 57.045 36.6571C57.1146 36.6798 57.1882 36.6871 57.2609 36.6787C57.3336 36.6702 57.4035 36.6462 57.466 36.6081C57.5539 36.5684 57.6337 36.5128 57.7015 36.4441C57.7563 36.3874 57.7933 36.316 57.8081 36.2386C57.8211 36.1592 57.8081 36.0778 57.7708 36.0065L58.3506 35.7274C58.4313 35.8799 58.4597 36.0546 58.4316 36.2248C58.3922 36.3874 58.304 36.5342 58.179 36.6454C58.0211 36.79 57.8412 36.9086 57.6461 36.9968C57.4681 37.0859 57.2737 37.1374 57.0749 37.1481C56.8997 37.1579 56.7258 37.112 56.5783 37.0171C56.4101 36.8993 56.2786 36.7365 56.1989 36.5474L55.4678 35.0257L55.9356 34.8052ZM56.6944 34.3611C56.8659 34.2708 57.0569 34.2236 57.2507 34.2238C57.4061 34.2267 57.5575 34.2732 57.6877 34.3579C57.807 34.4381 57.9029 34.5483 57.9658 34.6774C58.038 34.8124 58.0603 34.9685 58.0287 35.1183C57.9938 35.267 57.916 35.4021 57.8049 35.507C57.6672 35.6385 57.5088 35.7464 57.336 35.8265C57.2122 35.8859 57.0835 35.9343 56.9513 35.9713C56.8226 36.0081 56.6915 36.0362 56.5591 36.0554L56.4088 35.7423C56.5254 35.7288 56.6406 35.7049 56.753 35.671C56.8629 35.6393 56.9698 35.5983 57.0728 35.5485C57.2 35.4939 57.3103 35.4065 57.3925 35.2951C57.4259 35.2439 57.4445 35.1844 57.446 35.1232C57.4475 35.0621 57.4319 35.0018 57.401 34.949C57.3782 34.9016 57.3455 34.8596 57.305 34.826C57.2646 34.7924 57.2173 34.7679 57.1665 34.7541C57.0265 34.7262 56.881 34.7512 56.7584 34.8244C56.6452 34.8734 56.5488 34.9545 56.4813 35.0576C56.4206 35.1489 56.3839 35.254 56.3747 35.3632C56.3625 35.4581 56.3777 35.5546 56.4184 35.6412L56.2916 35.7019C56.2126 35.5429 56.17 35.3682 56.1669 35.1907C56.1617 35.0226 56.2034 34.8563 56.2873 34.7104C56.3834 34.5545 56.5257 34.4325 56.6944 34.3611Z" fill="#192CA7"/>
<path d="M55.9835 37.6604L55.3441 37.8457L54.0311 36.0087L54.1377 35.9778V38.1971L53.5632 38.3632L53.657 35.0683C53.654 34.8119 53.7125 34.5585 53.8275 34.3293C53.9298 34.1536 54.0977 34.0256 54.2943 33.9736C54.4104 33.9396 54.5304 33.9207 54.6513 33.9171C54.7772 33.9121 54.9032 33.9225 55.0265 33.948L55.1725 34.4496C55.0695 34.4138 54.9617 34.3933 54.8528 34.3889C54.7559 34.3854 54.659 34.3976 54.5661 34.4251C54.4835 34.4484 54.4108 34.4982 54.3593 34.5668C54.3062 34.6435 54.2699 34.7306 54.2528 34.8223C54.2306 34.9274 54.2199 35.0345 54.2208 35.1418V35.4123L55.9835 37.6604Z" fill="#192CA7"/>
<path d="M53.0048 36.096C53.0253 36.2009 53.0035 36.3096 52.9441 36.3984C52.9123 36.4434 52.8717 36.4815 52.8249 36.5104C52.778 36.5393 52.7257 36.5584 52.6713 36.5667C52.6168 36.5789 52.5604 36.58 52.5054 36.5699C52.4505 36.5599 52.3982 36.5388 52.3515 36.5081C52.3062 36.4796 52.2674 36.4418 52.2379 36.3972C52.2083 36.3526 52.1885 36.3022 52.18 36.2493C52.1685 36.1974 52.1685 36.1436 52.1801 36.0917C52.1917 36.0398 52.2146 35.9911 52.2471 35.949C52.3142 35.8608 52.4126 35.8017 52.5221 35.784C52.5755 35.7719 52.6308 35.7708 52.6846 35.7807C52.7384 35.7906 52.7897 35.8113 52.8354 35.8415C52.8799 35.8696 52.9181 35.9068 52.9473 35.9507C52.9765 35.9945 52.9961 36.044 53.0048 36.096Z" fill="#192CA7"/>
<path d="M52.1394 36.2546C52.1485 36.3071 52.146 36.361 52.1322 36.4125C52.1184 36.4639 52.0936 36.5118 52.0595 36.5528C52.0267 36.5965 51.9851 36.6328 51.9374 36.6594C51.8896 36.686 51.8369 36.7023 51.7824 36.7072C51.7268 36.7164 51.6699 36.7144 51.615 36.7014C51.5601 36.6884 51.5083 36.6647 51.4627 36.6316C51.4196 36.6002 51.3834 36.5603 51.3564 36.5143C51.3294 36.4683 51.3123 36.4172 51.306 36.3643C51.2977 36.3119 51.3009 36.2583 51.3152 36.2072C51.3296 36.1561 51.3548 36.1087 51.3892 36.0683C51.4617 35.983 51.5644 35.9292 51.6759 35.9181C51.7297 35.9092 51.7847 35.9111 51.8378 35.9237C51.8909 35.9363 51.9409 35.9594 51.9849 35.9916C52.0277 36.0221 52.0635 36.0614 52.0902 36.1067C52.1168 36.152 52.1336 36.2024 52.1394 36.2546Z" fill="#192CA7"/>
<path d="M51.2678 36.3696C51.2726 36.4227 51.2669 36.4762 51.2508 36.5271C51.2346 36.5779 51.2085 36.625 51.174 36.6657C51.1378 36.7069 51.0937 36.7405 51.0442 36.7642C50.9948 36.788 50.941 36.8016 50.8862 36.8041C50.8308 36.8099 50.7748 36.8045 50.7215 36.7882C50.6683 36.7719 50.6188 36.7451 50.5761 36.7093C50.533 36.6762 50.4975 36.6343 50.472 36.5863C50.4464 36.5384 50.4314 36.4856 50.428 36.4314C50.4242 36.3785 50.4317 36.3253 50.4501 36.2756C50.4684 36.2258 50.4972 36.1805 50.5345 36.1428C50.6109 36.0614 50.7161 36.0133 50.8276 36.0086C50.8821 36.0021 50.9373 36.0067 50.9899 36.0223C51.0425 36.0379 51.0913 36.064 51.1335 36.0991C51.1731 36.1327 51.2054 36.174 51.2285 36.2205C51.2516 36.2671 51.2649 36.3178 51.2678 36.3696Z" fill="#192CA7"/>
<path d="M50.3854 36.4346C50.388 36.4874 50.3799 36.5402 50.3616 36.5898C50.3433 36.6394 50.3151 36.6848 50.2788 36.7232C50.2402 36.7621 50.1941 36.7928 50.1435 36.8136C50.0928 36.8345 50.0384 36.845 49.9836 36.8446C49.872 36.8504 49.7625 36.8122 49.6788 36.7381C49.6396 36.7022 49.608 36.6588 49.586 36.6103C49.5641 36.5619 49.5522 36.5095 49.5511 36.4563C49.55 36.4031 49.5597 36.3503 49.5797 36.301C49.5996 36.2517 49.6293 36.207 49.6671 36.1695C49.7482 36.093 49.8561 36.0513 49.9676 36.0534C50.022 36.05 50.0765 36.0577 50.1278 36.076C50.1791 36.0943 50.2261 36.1228 50.266 36.1599C50.3033 36.1954 50.333 36.238 50.3535 36.2852C50.374 36.3324 50.3849 36.3832 50.3854 36.4346Z" fill="#192CA7"/>
</g>
<defs>
<clipPath id="clip0_136_100">
<rect width="68.8372" height="40" fill="white"/>
</clipPath>
</defs>
</svg>
