<svg width="83" height="48" viewBox="0 0 83 48" fill="none" xmlns="http://www.w3.org/2000/svg">
<g clip-path="url(#clip0_101_124)">
<path d="M25.933 5.76853C25.2091 7.35443 24.5377 8.79465 23.9392 10.0457C23.5956 10.7467 23.4935 11.5415 23.6489 12.3064C23.8075 13.1179 24.1873 13.6942 24.773 14.0175C25.0497 14.1782 25.3636 14.2641 25.6836 14.2667C26.4138 14.2667 27.1274 13.8769 27.8091 13.1102C27.8698 13.1908 27.9379 13.2657 28.0124 13.3338C28.3244 13.6252 28.5687 13.7811 28.7797 13.8271C29.3808 13.9728 30.0586 13.7364 30.785 13.1281C30.9129 13.0271 31.0331 12.9121 31.1597 12.7894C31.1914 12.9595 31.2568 13.1215 31.3521 13.266C31.4474 13.4104 31.5707 13.5343 31.7147 13.6303C31.9163 13.7651 32.1538 13.8364 32.3964 13.8348C33.0486 13.8348 33.8031 13.5332 34.715 12.9147C34.951 12.751 35.1762 12.5722 35.3889 12.3792C35.4041 12.6044 35.4632 12.8245 35.5628 13.0271C35.6779 13.2636 35.8558 13.464 36.077 13.6064C36.2982 13.7488 36.5543 13.8278 36.8174 13.8348H36.8711C37.5349 13.8348 38.2945 13.5281 39.1245 12.9223C39.2626 12.8214 39.4033 12.7115 39.5414 12.5926C39.5688 12.7437 39.6179 12.8901 39.6872 13.0271C39.8021 13.2635 39.9797 13.4638 40.2007 13.6062C40.4217 13.7487 40.6776 13.8277 40.9405 13.8348H40.9929C41.6592 13.8348 42.4163 13.5281 43.2488 12.9223C44.0814 12.3166 44.8564 11.4297 45.5981 10.2528C45.6647 10.1593 45.709 10.0519 45.7276 9.9387C45.7463 9.82551 45.7387 9.70956 45.7055 9.59974C45.6489 9.38603 45.5114 9.2027 45.3219 9.08857C45.2293 9.03229 45.1265 8.99486 45.0194 8.97841C44.9123 8.96196 44.803 8.96683 44.6978 8.99273C44.4839 9.04278 44.2965 9.17084 44.1722 9.35182C43.8781 9.84445 43.5404 10.3098 43.1632 10.7422C42.9027 11.0492 42.6132 11.3304 42.2986 11.5818C42.0887 11.7425 41.8639 11.8829 41.6272 12.001C41.5002 12.0727 41.3625 12.1236 41.2193 12.1517H41.1988C41.1839 12.0318 41.1766 11.911 41.1771 11.7901C41.1771 11.5217 41.2692 11.0962 41.4508 10.5211C41.6463 9.90717 41.8971 9.31221 42.2002 8.74353C43.6069 5.99472 44.3678 4.3986 44.5418 3.83376C44.5906 3.62179 44.564 3.39943 44.4663 3.20502C44.4161 3.10262 44.3444 3.0122 44.2561 2.93988C44.1679 2.86756 44.0651 2.81504 43.9548 2.78586C43.847 2.75463 43.7339 2.74589 43.6226 2.76018C43.5113 2.77447 43.4041 2.81148 43.3077 2.86893C43.1331 2.97188 42.9981 3.13023 42.924 3.31876C42.9111 3.34288 42.8956 3.36558 42.878 3.38649C42.8304 3.44832 42.7877 3.51368 42.7501 3.58201C42.7143 3.64463 42.6618 3.73025 42.5915 3.83759C42.5212 3.94494 42.4355 4.10851 42.3524 4.27464C42.2692 4.44077 42.1759 4.63885 42.0659 4.87526C41.9559 5.11168 41.837 5.36215 41.704 5.64202C41.571 5.92188 41.4124 6.26181 41.241 6.64902C41.0696 7.03623 40.8944 7.44644 40.7154 7.87582C40.5121 8.34865 40.3381 8.79081 40.1847 9.20486C40.1378 9.24951 40.095 9.29826 40.0568 9.35054C39.7556 9.84291 39.4115 10.3077 39.0286 10.7396C38.7685 11.047 38.4789 11.3282 38.1641 11.5792C37.9543 11.7397 37.73 11.88 37.4939 11.9984C37.3667 12.0707 37.2284 12.1216 37.0847 12.1492H37.0642C37.051 12.0291 37.045 11.9083 37.0463 11.7875C37.0463 11.5192 37.1371 11.0936 37.3162 10.5186C37.5121 9.90436 37.7638 9.30935 38.0681 8.74098C39.4749 5.99217 40.2333 4.39604 40.4072 3.8312C40.458 3.61934 40.4312 3.39632 40.3317 3.20246C40.2816 3.10001 40.2099 3.00955 40.1216 2.93723C40.0334 2.8649 39.9306 2.81241 39.8202 2.78331C39.7124 2.752 39.5993 2.74322 39.488 2.75751C39.3766 2.7718 39.2695 2.80886 39.1731 2.86637C38.9979 2.96855 38.8626 3.12715 38.7894 3.3162C38.7759 3.34027 38.7601 3.36295 38.7421 3.38393C38.6946 3.44576 38.6518 3.51112 38.6142 3.57945C38.5784 3.64207 38.526 3.72769 38.4582 3.83504C38.3904 3.94238 38.2996 4.10596 38.2165 4.27209C38.1334 4.43822 38.04 4.63629 37.93 4.87271C37.82 5.10912 37.7011 5.3596 37.5681 5.63946C37.4351 5.91933 37.2778 6.25925 37.1052 6.64646C36.9325 7.03367 36.7599 7.44389 36.5795 7.87327C36.4133 8.25664 36.2649 8.6298 36.1345 8.97611C36.0303 9.03999 35.9426 9.12757 35.8787 9.2317C35.6165 9.62768 35.3268 10.0047 35.0116 10.3601C34.7747 10.6338 34.5182 10.8901 34.2443 11.1269C34.0321 11.3072 33.8068 11.4716 33.5704 11.6189C33.4045 11.7297 33.2295 11.8263 33.0473 11.9077C32.9488 11.946 32.8478 11.9831 32.7455 12.0163C32.781 11.7605 32.8313 11.5071 32.8964 11.2572C32.9693 10.9709 33.0614 10.677 33.1675 10.378C33.1957 10.2937 33.2826 10.056 33.3517 9.89238C33.4016 9.77226 33.4514 9.65341 33.5051 9.53073C34.7546 6.64007 35.1267 5.78898 35.2048 5.62285L35.2278 5.59985L35.2444 5.527C35.2964 5.31233 35.2631 5.08588 35.1514 4.89524C35.0398 4.7046 34.8586 4.5646 34.6459 4.50467C34.5388 4.47248 34.4262 4.46256 34.3152 4.47553C34.2041 4.4885 34.0968 4.52407 34.0001 4.58006C33.9023 4.63252 33.8169 4.70528 33.7497 4.79345C33.6824 4.88162 33.6348 4.98315 33.61 5.09123C33.5627 5.24203 33.2506 5.996 32.0306 8.72309C31.9449 8.91861 31.8618 9.10646 31.7838 9.3007C31.528 9.57929 31.1981 9.97928 30.7684 10.5275C30.4062 11.0111 29.9909 11.4526 29.5304 11.8438C29.439 11.9462 29.3207 12.021 29.189 12.0597C29.1965 11.9655 29.2194 11.8731 29.2567 11.7863C29.3603 11.4412 29.7453 10.525 30.4077 9.0694C30.5458 8.75759 30.7773 8.31798 31.097 7.76209C31.4168 7.20619 31.6572 6.76275 31.8106 6.45605C32.1431 5.6893 31.7007 5.38004 31.4935 5.28164L31.4462 5.26503C31.2975 5.22622 31.1446 5.20563 30.9909 5.20369C30.7925 5.21068 30.6044 5.29347 30.4653 5.43499C30.3469 5.54253 30.2358 5.65779 30.1328 5.78003C30.0176 5.92344 29.9137 6.07555 29.822 6.23497C29.7322 6.38814 29.6515 6.54645 29.5803 6.70908C29.5291 6.83048 29.4665 6.96467 29.3961 7.11674C29.3504 7.21746 29.2992 7.31558 29.2427 7.41066C28.3129 9.08729 27.5801 10.3499 27.0417 11.1677C26.7003 11.6955 26.3857 12.0623 26.1069 12.2706C25.8511 12.4572 25.7232 12.4725 25.6772 12.4495C25.5109 12.3639 25.4355 12.0904 25.4022 11.8744C25.3461 11.5188 25.3987 11.1544 25.5531 10.8291C26.2425 9.43361 26.9164 7.98828 27.5584 6.52889L27.5853 6.50078L27.6057 6.45605C27.6548 6.34921 27.6816 6.23354 27.6847 6.11604C27.6878 5.99853 27.667 5.88163 27.6236 5.77236C27.5357 5.5524 27.365 5.37566 27.1481 5.28009C26.9312 5.18451 26.6855 5.17773 26.4637 5.2612C26.2513 5.34028 26.0765 5.49629 25.9739 5.69824L25.933 5.76853Z" fill="white"/>
<path d="M34.6806 4.08934C34.8489 4.1838 35.043 4.22233 35.2347 4.19936C35.4264 4.17638 35.6059 4.09311 35.7471 3.96155C35.8332 3.87978 35.9018 3.78136 35.9486 3.67229C35.9955 3.56321 36.0196 3.44576 36.0196 3.32706C36.0196 3.20837 35.9955 3.09091 35.9486 2.98184C35.9018 2.87277 35.8332 2.77435 35.7471 2.69258C35.5788 2.53564 35.3571 2.44836 35.1269 2.44836C34.8967 2.44836 34.675 2.53564 34.5066 2.69258C34.3595 2.82825 34.265 3.01144 34.2397 3.2099C34.2144 3.40836 34.2601 3.60937 34.3685 3.77753C34.447 3.90417 34.5538 4.01091 34.6806 4.08934Z" fill="white"/>
<path d="M53.4377 21.6096C55.0401 22.3393 56.6348 22.6741 58.1695 22.6077C59.0253 22.5782 59.8482 22.2709 60.5136 21.7323C61.2081 21.1828 61.6365 20.5081 61.781 19.7234C61.9165 19.0181 61.7726 18.2877 61.3794 17.6864C60.9958 17.082 60.3793 16.5963 59.5621 16.2385C58.999 16.0004 58.3947 15.8745 57.7832 15.8679C57.2517 15.8587 56.7236 15.9546 56.2294 16.1503C55.7358 16.3709 55.2762 16.661 54.8649 17.0117C54.4476 17.3509 54.0604 17.7255 53.7075 18.1311C53.4351 18.4468 53.1422 18.8212 52.8289 19.2442C52.591 19.1164 52.2534 18.9452 51.8058 18.7087C50.3505 17.9139 49.1202 17.28 48.1431 16.8276C46.9659 16.2716 45.7463 15.8101 44.4958 15.4475C43.2684 15.0909 42.0113 14.8458 40.7398 14.7152C39.5245 14.5804 38.2946 14.6868 37.1206 15.0283C36.0428 15.3317 35.0776 15.9439 34.3441 16.7893C33.7449 17.4861 33.3673 18.3458 33.2597 19.2583C33.1384 20.1618 33.3129 21.0804 33.7571 21.8767C34.1617 22.6204 34.8056 23.2058 35.5847 23.538C36.4251 23.8922 37.3493 23.999 38.2485 23.846C38.4878 23.8016 38.7009 23.667 38.8437 23.4701C38.9865 23.2732 39.0481 23.0289 39.0159 22.7879C39.001 22.6665 38.9609 22.5495 38.8981 22.4446C38.8354 22.3396 38.7513 22.2489 38.6514 22.1783C38.4527 22.0342 38.2072 21.9699 37.9633 21.9981C37.438 22.0966 36.8957 22.0493 36.3955 21.8614C35.9603 21.6866 35.5988 21.367 35.3724 20.9566C35.1235 20.5036 35.0309 19.9813 35.1089 19.4704C35.1794 18.921 35.4118 18.405 35.7765 17.988C36.407 17.2327 37.3815 16.7701 38.6706 16.6193C40.0748 16.468 41.4948 16.5653 42.8652 16.9069C44.4098 17.2818 45.9102 17.8194 47.3413 18.5107C48.2761 18.9452 49.4744 19.5573 50.9017 20.3291L51.7406 20.7764C51.1485 21.6914 49.9988 24.1552 48.2327 28.2995C47.8695 29.1647 47.5612 29.8867 47.3119 30.458C47.2121 28.0133 47.1162 24.7623 47.028 20.7713C47.0281 20.6109 46.9876 20.4531 46.9103 20.3125C46.8309 20.1625 46.7085 20.0397 46.5586 19.9598C46.414 19.8804 46.2482 19.8478 46.0842 19.8665C45.9121 19.8624 45.7428 19.9098 45.5981 20.0028C45.4533 20.0957 45.3398 20.2299 45.2721 20.3879L39.3177 32.8937C38.7178 34.1681 37.8538 35.3006 36.7829 36.2163C35.8044 37.0608 34.6251 37.6399 33.3581 37.898C32.4046 38.0939 31.4196 38.0777 30.473 37.8507C29.5609 37.6288 28.7174 37.1864 28.0163 36.5626C26.6096 35.3064 26.0008 33.8559 26.1479 32.1333C26.2097 31.3821 26.441 30.6547 26.8244 30.0056C27.1757 29.3878 27.6688 28.8622 28.2631 28.4721C28.9233 28.054 29.6798 27.812 30.4602 27.7692C31.1871 27.7074 31.9164 27.8555 32.5614 28.196C33.4835 28.6804 33.9464 29.4484 33.9784 30.5461C33.9925 31.1276 33.8735 31.5979 33.6203 31.9365C33.3997 32.2581 33.069 32.4881 32.6906 32.5831C32.4318 32.6541 32.1583 32.6506 31.9015 32.5729C31.7902 32.5394 31.6875 32.4821 31.6007 32.4048C31.5139 32.3276 31.445 32.2323 31.3989 32.1256C31.3445 32.0143 31.2675 31.9154 31.1729 31.8353C31.0782 31.7553 30.9679 31.6957 30.849 31.6605C30.7324 31.6213 30.6091 31.6057 30.4864 31.6144C30.3637 31.6232 30.244 31.6562 30.1341 31.7116C29.915 31.8211 29.7482 32.0128 29.6703 32.2449C29.5924 32.477 29.6097 32.7305 29.7185 32.9499C30.0073 33.5542 30.5145 34.0268 31.138 34.2726C31.7717 34.5357 32.4749 34.5806 33.1369 34.4003C33.6048 34.2901 34.0439 34.0814 34.4247 33.7882C34.8587 33.4344 35.2038 32.9841 35.4325 32.4732C35.7217 31.8515 35.8585 31.1699 35.8315 30.4848C35.7778 28.6957 34.9746 27.3731 33.4477 26.5565C32.5057 26.0568 31.4422 25.8314 30.3784 25.906C29.3243 25.9587 28.3001 26.2736 27.3987 26.8221C26.4974 27.3706 25.7474 28.1355 25.2169 29.0471C24.6889 29.9444 24.3703 30.949 24.2846 31.9863C24.1937 33.0832 24.3692 34.1858 24.7961 35.2003C25.2432 36.2473 25.9177 37.1819 26.7707 37.9363C28.2388 39.2449 29.9986 39.9095 32.0115 39.9095C32.5897 39.909 33.1663 39.8473 33.7316 39.7254C35.286 39.4089 36.7353 38.7057 37.9454 37.6808C39.236 36.5855 40.2776 35.2274 41.0007 33.6975L45.2759 24.7201C45.4191 30.4004 45.5547 33.4342 45.689 33.9863C45.8527 34.5882 46.2594 34.7326 46.5842 34.753H46.7121C47.1175 34.753 47.4896 34.4259 47.8541 33.7512C48.1674 33.162 48.8772 31.5787 49.954 29.0318C51.7125 24.9156 52.8558 22.4684 53.3545 21.754L53.4377 21.6096ZM54.5439 20.0851C55.2946 19.0998 55.9967 18.402 56.6323 18.0136C57.2679 17.6251 58.0032 17.5957 58.8281 17.9522C60.0878 18.5056 59.9893 19.1407 59.9535 19.3579C59.8589 19.7355 59.6378 20.0692 59.3268 20.3036C58.9835 20.5891 58.5522 20.748 58.1055 20.7534C56.884 20.7899 55.669 20.5619 54.5439 20.0851Z" fill="white"/>
<path d="M22.503 29.8215C22.0286 30.9154 21.5413 31.8598 21.2011 32.854C19.9939 36.3773 20.9454 39.3408 23.9303 41.2564C24.9388 41.8872 26.0135 42.4058 27.1351 42.8027C29.8373 43.7815 32.6688 44.0614 35.5513 44.2646C35.0219 44.3579 34.4963 44.478 33.963 44.5406C30.1814 44.9879 26.5673 44.4473 23.2883 42.4461C22.2946 41.8404 21.407 40.9803 20.6525 40.082C19.4798 38.6852 19.1767 36.983 19.5284 35.2016C19.9351 33.1429 21.0515 31.4624 22.503 29.8215Z" fill="white"/>
<path d="M24.429 38.928C30.4755 43.1963 36.3621 42.4397 42.1925 38.2673C41.6726 39.1783 40.9513 39.9585 40.0836 40.5484C36.3263 43.2091 29.8335 43.2819 26.057 40.6583C25.3958 40.1995 24.8613 39.5568 24.2666 38.997L24.429 38.928Z" fill="white"/>
<path d="M20.3418 41.2525C21.6207 44.3374 28.4601 46.7476 31.6713 46.7795C32.8911 46.8071 34.1084 46.6556 35.2841 46.3297C41.8946 44.3758 46.8885 40.4372 49.8747 34.1153C49.9062 34.0682 49.9436 34.0253 49.986 33.9875L50.1433 34.0527C49.8133 35.0022 49.5946 36.0143 49.133 36.8923C45.648 43.5157 40.1489 47.2536 32.6867 47.9833C30.3988 48.2057 23.7679 46.6224 22.0721 44.8563C21.1104 43.8467 20.6014 42.6199 20.3418 41.2525Z" fill="white"/>
<path d="M68.8055 16.3408C68.8614 16.3243 68.9123 16.2944 68.9538 16.2536C68.9952 16.2128 69.026 16.1624 69.0434 16.1069C69.0728 16.0161 69.065 15.9173 69.0216 15.8323C68.9782 15.7472 68.9028 15.6828 68.8119 15.6533C68.7071 15.6085 68.2198 15.6303 68.0996 15.6303V16.806H68.3477V16.3638L68.5447 16.3702L68.8286 16.806H69.1086L68.8055 16.3408ZM68.6495 16.1478H68.3477V15.8424H68.6725C68.7111 15.845 68.7471 15.8627 68.7727 15.8917C68.7983 15.9206 68.8115 15.9585 68.8094 15.997V16.0124C68.8081 16.0319 68.8029 16.0509 68.7941 16.0684C68.7853 16.0858 68.7731 16.1013 68.7582 16.114C68.7433 16.1266 68.726 16.1361 68.7073 16.1419C68.6886 16.1478 68.669 16.1498 68.6495 16.1478Z" fill="white"/>
<path d="M68.5832 15.0348C68.3489 15.0348 68.12 15.1042 67.9252 15.2342C67.7305 15.3642 67.5787 15.5491 67.4891 15.7653C67.3994 15.9815 67.376 16.2195 67.4217 16.449C67.4674 16.6786 67.5802 16.8894 67.7458 17.0549C67.9114 17.2204 68.1224 17.3331 68.3521 17.3788C68.5818 17.4244 68.82 17.401 69.0363 17.3114C69.2527 17.2219 69.4377 17.0702 69.5678 16.8756C69.6979 16.681 69.7674 16.4522 69.7674 16.2181C69.7674 15.9043 69.6426 15.6033 69.4205 15.3814C69.1985 15.1595 68.8972 15.0348 68.5832 15.0348ZM68.5832 17.1817C68.3921 17.1819 68.2052 17.1255 68.0462 17.0196C67.8873 16.9137 67.7633 16.763 67.6901 16.5867C67.6168 16.4103 67.5976 16.2162 67.6348 16.029C67.672 15.8417 67.764 15.6696 67.8991 15.5346C68.0342 15.3996 68.2064 15.3077 68.3938 15.2705C68.5812 15.2333 68.7755 15.2525 68.952 15.3257C69.1285 15.3989 69.2792 15.5228 69.3852 15.6816C69.4912 15.8405 69.5477 16.0272 69.5474 16.2181C69.5476 16.3447 69.5228 16.4701 69.4744 16.5871C69.426 16.7041 69.3549 16.8103 69.2654 16.8999C69.1758 16.9894 69.0694 17.0603 68.9524 17.1087C68.8353 17.1571 68.7098 17.1819 68.5832 17.1817Z" fill="white"/>
<path d="M68.8055 16.3408C68.8614 16.3243 68.9123 16.2944 68.9538 16.2536C68.9952 16.2128 69.026 16.1624 69.0434 16.1069C69.0728 16.0161 69.065 15.9173 69.0216 15.8323C68.9782 15.7472 68.9028 15.6828 68.8119 15.6533C68.7071 15.6085 68.2198 15.6303 68.0996 15.6303V16.806H68.3477V16.3638L68.5447 16.3702L68.8286 16.806H69.1086L68.8055 16.3408ZM68.6495 16.1478H68.3477V15.8424H68.6725C68.7111 15.845 68.7471 15.8627 68.7727 15.8917C68.7983 15.9206 68.8115 15.9585 68.8094 15.997V16.0124C68.8081 16.0319 68.8029 16.0509 68.7941 16.0684C68.7853 16.0858 68.7731 16.1013 68.7582 16.114C68.7433 16.1266 68.726 16.1361 68.7073 16.1419C68.6886 16.1478 68.669 16.1498 68.6495 16.1478Z" fill="white"/>
<path d="M68.8055 16.3408C68.8614 16.3243 68.9123 16.2944 68.9538 16.2536C68.9952 16.2128 69.026 16.1624 69.0434 16.1069C69.0728 16.0161 69.065 15.9173 69.0216 15.8323C68.9782 15.7472 68.9028 15.6828 68.8119 15.6533C68.7071 15.6085 68.2198 15.6303 68.0996 15.6303V16.806H68.3477V16.3638L68.5447 16.3702L68.8286 16.806H69.1086L68.8055 16.3408ZM68.6495 16.1478H68.3477V15.8424H68.6725C68.7111 15.845 68.7471 15.8627 68.7727 15.8917C68.7983 15.9206 68.8115 15.9585 68.8094 15.997V16.0124C68.8081 16.0319 68.8029 16.0509 68.7941 16.0684C68.7853 16.0858 68.7731 16.1013 68.7582 16.114C68.7433 16.1266 68.726 16.1361 68.7073 16.1419C68.6886 16.1478 68.669 16.1498 68.6495 16.1478Z" fill="white"/>
<path d="M31.6598 18.1976C31.564 17.7383 31.397 17.2968 31.1648 16.889C30.9379 16.4901 30.6472 16.1309 30.3042 15.8258C29.6206 15.2064 28.7546 14.8249 27.836 14.7383C26.85 14.651 25.8591 14.8376 24.9726 15.2776C24.3607 15.5469 23.7956 15.9118 23.2985 16.3587C22.8633 16.738 22.495 17.1877 22.2089 17.689C21.9728 18.1271 21.7755 18.5851 21.6194 19.0576C21.4711 19.486 21.3905 19.9348 21.3802 20.388C21.3802 20.765 21.3892 21.1023 21.4071 21.3899V21.4192C21.4489 21.6611 21.581 21.878 21.7767 22.0263C21.8755 22.105 21.9903 22.1613 22.1131 22.1913C22.2358 22.2213 22.3637 22.2243 22.4877 22.2001C22.6098 22.1812 22.7269 22.1382 22.8322 22.0735C22.9374 22.0087 23.0285 21.9236 23.1003 21.8231C23.1734 21.7255 23.2251 21.6136 23.252 21.4947C23.2789 21.3758 23.2804 21.2525 23.2563 21.133C23.2423 21.041 23.2295 20.9234 23.2218 20.779C23.2255 20.5213 23.2542 20.2645 23.3075 20.0123C23.3679 19.6488 23.4731 19.2943 23.6208 18.9567C23.8136 18.5628 24.0732 18.2052 24.3881 17.8999C24.7795 17.5009 25.2458 17.183 25.7603 16.9644C26.3249 16.6774 26.9555 16.5451 27.5879 16.581C28.1301 16.615 28.6438 16.8353 29.0419 17.2047C29.462 17.5794 29.7429 18.0852 29.8387 18.6398C29.9532 19.2675 29.8994 19.9143 29.6826 20.5145C29.2325 21.8256 28.2759 22.825 26.8448 23.4856C24.7718 24.4492 22.3816 24.4045 19.7394 23.3579C18.0375 22.6792 16.4252 21.7947 14.9386 20.7241C16.8473 18.8883 18.5709 16.8698 20.0847 14.6974L22.0887 11.5678C22.7738 10.4169 23.3809 9.22153 23.906 7.98957C24.4175 6.74871 24.7155 5.71871 24.7846 4.92256C24.8536 4.12642 24.8114 3.4734 24.6567 2.97884C24.5223 2.52075 24.269 2.10632 23.9226 1.7776C23.539 1.02873 22.8995 0.244089 21.8969 0.0613462C20.2075 -0.241521 18.0104 0.63769 17.3326 0.936723C17.2533 0.973063 17.1804 1.02181 17.1165 1.08113H17.0845C17.0091 1.07474 16.7507 1.18592 16.3914 1.35077C15.5652 1.73415 14.2071 2.39483 13.3438 2.55329C12.1819 2.77909 10.9931 2.83334 9.81542 2.71431C8.83796 2.61777 7.87814 2.38907 6.96227 2.03446C6.04548 1.66778 5.0515 1.53599 4.07075 1.65108C3.14017 1.73711 2.25487 2.09238 1.52324 2.67342C0.255882 3.70726 -0.224972 5.18198 0.092187 7.05286C0.182276 7.69156 0.395988 8.30661 0.72139 8.86367C0.982823 9.31954 1.32518 9.724 1.7317 10.0572C2.09733 10.3389 2.50292 10.5646 2.93511 10.7269C3.29905 10.8717 3.67707 10.9783 4.06307 11.0451C4.37296 11.0866 4.68526 11.1075 4.99793 11.1077C5.19018 11.1123 5.38252 11.1029 5.57342 11.0796C5.81531 11.0385 6.03225 10.9063 6.1796 10.7103C6.25671 10.6146 6.31237 10.5034 6.34281 10.3844C6.37326 10.2653 6.37778 10.1411 6.35608 10.0202C6.33291 9.85975 6.26562 9.70889 6.1617 9.58442C6.06391 9.46348 5.93906 9.36718 5.79722 9.30328C5.63729 9.23022 5.45952 9.20535 5.28567 9.23171C5.1687 9.24942 5.05088 9.26094 4.9327 9.26622C4.68753 9.26322 4.4433 9.23539 4.20375 9.18315C3.87575 9.12508 3.55841 9.0178 3.2625 8.86495C2.93961 8.67322 2.6642 8.41112 2.45681 8.0982C2.17808 7.69266 1.99408 7.22973 1.91841 6.7436C1.71379 5.56024 1.96573 4.69892 2.68573 4.11619C3.16563 3.75801 3.7371 3.54271 4.33419 3.49512C4.99194 3.42123 5.65782 3.5067 6.27551 3.74432C7.26638 4.13989 8.30683 4.39788 9.36782 4.51107C10.3053 4.62705 11.2516 4.654 12.1941 4.59158C10.2409 6.47185 8.462 8.5249 6.87914 10.7256C4.60915 13.8744 3.09241 16.8992 2.35578 19.7183C1.60892 22.6026 1.86342 24.6447 3.11159 25.7859C3.56176 26.1974 4.17306 26.407 4.92503 26.407C5.16645 26.4068 5.40753 26.3889 5.64631 26.3533C6.66941 26.1974 7.84341 25.7642 9.14785 25.06C10.5608 24.2796 11.8953 23.3651 13.1328 22.3291C13.2505 22.2384 13.3809 22.1336 13.5254 22.0135C15.2332 23.2584 17.0895 24.2861 19.0514 25.0728C20.5225 25.6716 22.0938 25.9869 23.6822 26.0019C25.0449 26.0129 26.3939 25.7291 27.6364 25.1699C28.5293 24.772 29.3349 24.2023 30.0075 23.4933C30.6474 22.8143 31.1349 22.0065 31.4372 21.124C31.7829 20.1883 31.8599 19.1748 31.6598 18.1976ZM22.787 5.55513C22.6591 6.10464 22.3662 6.88289 21.925 7.86817C21.4028 9.01068 20.8113 10.1203 20.1538 11.1908C19.7701 11.8195 19.3328 12.4827 18.8621 13.1639C16.8492 13.8731 15.2813 13.9306 14.1968 13.3326C13.4065 12.9147 12.9934 12.3895 12.932 11.7313C12.8706 10.9173 13.3016 9.8694 14.2109 8.61703C15.1483 7.33144 16.4873 5.98835 18.1843 4.62225C19.5911 3.50023 20.8469 2.93028 21.9327 2.93028C22.2588 2.93028 22.5005 3.00057 22.6642 3.15008C22.7449 3.221 22.8099 3.30808 22.8548 3.40567C22.8803 3.45295 22.9366 3.61908 22.9583 4.14175C22.9625 4.61829 22.9049 5.09337 22.787 5.55513ZM8.46366 23.3847C7.35531 23.9938 6.32795 24.3666 5.38159 24.5029C4.70379 24.5974 4.44929 24.4824 4.36616 24.4121C3.95948 24.0377 3.77149 23.3361 3.80602 22.3291C3.85164 22.2657 3.88463 22.1941 3.90321 22.1183C3.93348 22.0197 3.9711 21.9236 4.01575 21.8307C4.14271 21.5821 4.2921 21.3456 4.46208 21.124C4.70033 20.8003 4.96975 20.5007 5.26649 20.2295C5.6169 19.9292 6.0167 19.6919 6.44816 19.5279C6.97034 19.318 7.52867 19.2125 8.09151 19.2174C8.76759 19.2048 9.4375 19.3478 10.0495 19.6353C10.7272 19.9902 11.3744 20.4005 11.9844 20.8621C10.8977 21.822 9.71492 22.6673 8.45471 23.3847H8.46366ZM13.395 19.5905C12.744 19.1088 12.2261 18.742 11.8488 18.5005C11.334 18.1871 10.7869 17.9301 10.217 17.7337C9.53578 17.4883 8.8169 17.3638 8.09279 17.3657C6.91707 17.3511 5.76225 17.6769 4.76773 18.3037C5.57981 16.2181 6.79346 14.0431 8.38693 11.8246C9.15425 10.7563 9.97144 9.72755 10.8065 8.76655C11.6416 7.80555 12.3719 7.01835 12.9806 6.42412C13.5894 5.82988 14.1866 5.27399 14.7787 4.77943C14.8465 4.72193 14.9066 4.66698 14.9744 4.61458C15.0327 4.68201 15.1013 4.7398 15.1777 4.78582L14.6022 5.32638C14.1114 5.78752 13.6549 6.28382 13.2364 6.81133C12.8374 7.3225 12.4537 7.85795 12.0931 8.41001C11.737 8.95569 11.4589 9.54841 11.2669 10.171C11.0868 10.7272 11.0194 11.3137 11.0687 11.8962C11.1966 13.2099 11.9447 14.2463 13.2978 14.9747C14.3209 15.5319 15.5921 15.7108 17.0896 15.5101C15.9454 16.9468 14.7114 18.3096 13.395 19.5905Z" fill="white"/>
<path d="M69.7557 28.6382C69.7391 28.5338 69.7016 28.4337 69.6456 28.3439C69.5896 28.2541 69.5161 28.1765 69.4296 28.1156C69.3424 28.0505 69.2421 28.0053 69.1356 27.9832C69.0291 27.9611 68.919 27.9627 68.8131 27.9878C68.6129 28.0278 68.4349 28.1413 68.3144 28.306C68.1187 28.568 67.9077 28.8274 67.6929 29.0727C67.5004 29.2971 67.2955 29.5104 67.079 29.7117C66.8846 29.8916 66.6796 30.0597 66.4651 30.2152C66.2516 30.3698 66.0559 30.504 65.8845 30.6088C65.7132 30.7136 65.538 30.8171 65.373 30.9053C65.208 30.9935 65.0597 31.0637 64.9522 31.1149C64.896 31.1391 64.841 31.166 64.7847 31.1928C64.8266 30.7698 64.9124 30.3522 65.0405 29.9468C65.2925 29.0964 65.6382 28.2765 66.0713 27.5022C66.35 26.991 66.6148 26.5143 66.8641 26.0594H67.8374C67.9421 26.044 68.0426 26.0071 68.1324 25.951C68.2222 25.8949 68.2994 25.8209 68.3591 25.7335C68.4885 25.5692 68.5592 25.3663 68.5599 25.1572C68.5599 24.7189 68.2875 24.4582 67.8348 24.4582H67.8028C67.8259 24.4109 67.8476 24.3674 67.8668 24.3214C67.9422 24.1527 68.0113 23.9981 68.0701 23.8614C68.129 23.7246 68.1827 23.5968 68.2261 23.4844C68.2696 23.3719 68.3144 23.2671 68.3617 23.1547C68.4538 22.9591 68.4657 22.7353 68.395 22.5311C68.3616 22.4316 68.3075 22.3404 68.2363 22.2633C68.1651 22.1862 68.0784 22.125 67.9819 22.0838C67.7928 22.0002 67.5787 21.9933 67.3846 22.0646C67.2865 22.0977 67.1959 22.15 67.1181 22.2185C67.0404 22.2869 66.9771 22.3702 66.9319 22.4633C66.5508 23.2062 66.2149 23.8605 65.9242 24.4262C65.7088 24.4585 65.4907 24.4692 65.2732 24.4582C65.0664 24.4542 64.8663 24.5313 64.7156 24.6729C64.5634 24.8112 64.4682 25.0011 64.4484 25.2058V25.2326C64.4473 25.3654 64.4771 25.4966 64.5353 25.616C64.5991 25.7429 64.6975 25.8492 64.8192 25.9227C64.8993 25.9704 64.9853 26.0074 65.075 26.0326C64.9113 26.3303 64.7796 26.5655 64.6734 26.7341C64.5878 26.8901 64.5021 27.0511 64.4177 27.2185C64.2613 27.2048 64.1043 27.2386 63.9675 27.3156C63.3703 27.607 62.9137 27.8268 62.5978 27.9712C62.3175 27.3897 61.9365 26.8623 61.4724 26.4134C61.2317 26.1957 61.0084 25.9594 60.8049 25.7067C61.1719 25.2748 62.7884 23.9176 63.6772 23.4793C63.8243 23.4033 63.9463 23.2864 64.0286 23.1427C64.1108 22.9991 64.1497 22.8347 64.1406 22.6695C64.1316 22.5043 64.0749 22.3451 63.9775 22.2113C63.8801 22.0775 63.7461 21.9746 63.5915 21.9151C63.4836 21.8726 63.3679 21.8533 63.252 21.8583C63.1362 21.8634 63.0226 21.8928 62.9188 21.9445C61.819 22.4876 60.0388 23.9738 59.5541 24.531C58.8615 25.1741 58.2398 25.8896 57.6998 26.6651C57.2522 27.3041 56.5603 28.5271 56.3685 28.6932L55.9618 29.1648L55.3518 29.8305L55.3364 29.8472L55.7751 31.5877C55.7751 31.5877 57.2036 30.5424 58.6065 28.3776C58.6538 28.3034 58.6909 28.2331 58.7267 28.1667C58.9968 27.7293 59.2959 27.3105 59.6219 26.9131C59.8386 27.1796 60.0714 27.4327 60.3189 27.6709C60.6451 27.9689 60.9116 28.3263 61.1041 28.7239C60.4481 29.0766 59.7639 29.4842 59.0579 29.9417C58.6353 30.2035 58.2731 30.552 57.9952 30.9641C57.71 31.4011 57.6627 31.8267 57.8494 32.2203C58.0591 32.7046 58.5195 32.9512 59.214 32.9512C59.6364 32.9349 60.0557 32.8728 60.4647 32.7659C61.8523 32.426 62.7027 31.6925 62.9994 30.5935C63.0781 30.2813 63.1036 29.9582 63.0749 29.6376C63.2027 29.5737 63.3613 29.4957 63.5621 29.3948C63.4905 29.6159 63.4342 29.8357 63.3741 30.0555C63.2303 30.578 63.1814 31.122 63.2296 31.6618C63.2884 32.1845 63.4854 32.5564 63.8166 32.7621C64.006 32.8882 64.2285 32.9553 64.456 32.9551C65.0162 32.9551 65.8065 32.6151 66.8705 31.9136C67.9383 31.2035 68.8621 30.2982 69.5933 29.2453C69.6639 29.1626 69.7152 29.0652 69.7433 28.9602C69.7714 28.8551 69.7757 28.7451 69.7557 28.6382ZM61.6182 30.0887C61.6164 30.1341 61.6091 30.1792 61.5965 30.2229C61.4584 30.78 60.9571 31.1596 60.0989 31.3615C59.882 31.4238 59.6598 31.4666 59.4352 31.4893C59.4289 31.4906 59.4223 31.4906 59.416 31.4893C59.5512 31.3688 59.6953 31.2586 59.847 31.1596C60.4189 30.7657 61.011 30.4018 61.6208 30.0695C61.6219 30.076 61.621 30.0827 61.6182 30.0887Z" fill="white"/>
<path d="M54.0409 30.8809C53.289 31.3474 52.7199 31.4994 52.3528 31.3371C52.1193 31.2105 51.9438 30.9985 51.863 30.7455C51.7526 30.4974 51.7128 30.2237 51.7479 29.9544C51.7671 29.8586 51.7927 29.7564 51.8259 29.6452C52.404 29.9008 53.0933 29.9199 53.8721 29.7167C54.6585 29.4969 55.3638 29.0528 55.9017 28.4388C56.5143 27.7743 56.7969 27.1047 56.7662 26.4491C56.7608 26.2598 56.7175 26.0735 56.6388 25.9012C56.5602 25.729 56.4478 25.5741 56.3084 25.4459C56.0112 25.1831 55.6391 25.02 55.2444 24.9795C54.5838 24.8705 53.9057 24.9757 53.3094 25.2798C52.7117 25.57 52.1828 25.9843 51.7582 26.4951C51.3561 26.9811 51.0104 27.511 50.7274 28.0746C50.4664 28.5758 50.2794 29.1121 50.1724 29.6669C50.0849 30.2754 50.1737 30.8963 50.4281 31.456C50.6592 32.0417 51.1124 32.5125 51.6891 32.7659C51.984 32.9006 52.3048 32.9691 52.6291 32.9665C53.2966 32.9665 54.0844 32.6943 54.9732 32.1563C55.253 31.9861 55.5201 31.7961 55.7725 31.5876L55.3352 29.8458C54.9416 30.2356 54.5078 30.5826 54.0409 30.8809ZM53.6074 26.9641C54.0652 26.6139 54.5256 26.4798 55.0142 26.5552C55.0716 26.5626 55.1282 26.5759 55.183 26.5948C55.1727 26.7226 55.0845 26.9782 54.6714 27.4254C54.3516 27.7877 53.9336 28.0496 53.468 28.1794C53.0319 28.2957 52.7007 28.3072 52.4692 28.2152C52.7745 27.7364 53.1595 27.3133 53.6074 26.9641Z" fill="white"/>
<path d="M68.2786 7.54745C68.0381 7.43178 67.8212 7.27229 67.6392 7.07718C67.4971 6.92433 67.4018 6.73413 67.3642 6.52895C67.3347 6.33029 67.3696 6.1274 67.464 5.95005L68.0459 6.24909C68.0114 6.31485 67.9942 6.38831 67.996 6.46254C67.9978 6.53678 68.0184 6.60933 68.0561 6.67335C68.1569 6.82252 68.2973 6.94067 68.4615 7.01456C68.5573 7.06609 68.6618 7.09945 68.7697 7.11296C68.8586 7.12437 68.9489 7.11429 69.0331 7.08357C69.108 7.0593 69.171 7.00775 69.2096 6.93916C69.2318 6.90058 69.2445 6.85724 69.2465 6.81277C69.2485 6.7683 69.2398 6.724 69.2211 6.68358C69.162 6.57163 69.0821 6.47189 68.9858 6.38966L68.4935 5.87849C68.3275 5.71802 68.2037 5.51921 68.1328 5.29959C68.0808 5.11175 68.1023 4.91115 68.1929 4.73858C68.2509 4.6239 68.3378 4.52626 68.445 4.45524C68.5521 4.38422 68.6759 4.34226 68.8042 4.33348C69.1381 4.30864 69.4717 4.38431 69.7621 4.55073C70.1215 4.73603 70.358 4.95455 70.4744 5.20758C70.5315 5.32188 70.5612 5.44788 70.5612 5.57562C70.5612 5.70336 70.5315 5.82936 70.4744 5.94366L69.8836 5.63952C69.9035 5.58849 69.9113 5.53357 69.9064 5.47904C69.9015 5.42451 69.8841 5.37184 69.8554 5.32515C69.7695 5.20002 69.6504 5.10132 69.5114 5.04017C69.3845 4.96468 69.2361 4.93323 69.0894 4.95072C69.037 4.95525 68.9865 4.97222 68.942 5.00023C68.8975 5.02824 68.8603 5.06647 68.8336 5.11173C68.7582 5.26253 68.8336 5.44016 69.0472 5.64591L69.5677 6.20691C69.7316 6.36145 69.8592 6.55045 69.9411 6.76025C69.9726 6.84807 69.985 6.94159 69.9775 7.03458C69.97 7.12756 69.9428 7.21789 69.8977 7.29954C69.8174 7.44989 69.6903 7.57009 69.5357 7.64202C69.3555 7.7257 69.1573 7.76304 68.959 7.75064C68.7199 7.73423 68.4875 7.66481 68.2786 7.54745Z" fill="white"/>
<path d="M69.9771 8.42657L72.5079 4.70654L73.0885 5.10142L70.5615 8.82017L69.9771 8.42657Z" fill="white"/>
<path d="M72.1028 10.1672C71.9059 9.99474 71.761 9.77079 71.6846 9.52056C71.6107 9.26163 71.6072 8.98772 71.6743 8.72697C71.7611 8.43283 71.911 8.1611 72.1135 7.9307C72.316 7.70029 72.5663 7.51675 72.8471 7.39282C73.0915 7.29325 73.3591 7.26441 73.6191 7.30961C73.8792 7.3548 74.1213 7.47221 74.3178 7.64841C74.484 7.78215 74.6124 7.95698 74.6903 8.15558C74.7681 8.35417 74.7927 8.56964 74.7615 8.78065C74.7289 8.98751 74.6559 9.18595 74.5467 9.36466C74.431 9.55715 74.285 9.72975 74.1144 9.87582L72.4391 8.40366L72.6949 8.11101L74.0044 9.26114L73.8241 9.23559C73.9019 9.1551 73.9714 9.06689 74.0313 8.97233C74.0898 8.88115 74.133 8.781 74.1592 8.67586C74.1829 8.57465 74.1802 8.46905 74.1515 8.36916C74.1135 8.25504 74.0433 8.15432 73.9494 8.07907C73.8377 7.97422 73.6951 7.90831 73.5428 7.89121C73.3954 7.87785 73.2472 7.90667 73.1156 7.97428C72.9691 8.0502 72.8388 8.15395 72.732 8.2797L72.5465 8.49056C72.4303 8.61854 72.3384 8.76665 72.2754 8.92761C72.2222 9.06425 72.2093 9.21326 72.2383 9.35699C72.2787 9.50094 72.3589 9.63058 72.4698 9.73096C72.5806 9.83134 72.7176 9.89839 72.865 9.92439C72.9342 9.92981 73.0039 9.9213 73.0698 9.89935C73.1357 9.8774 73.1965 9.84246 73.2486 9.79659L73.7845 10.2669C73.6319 10.3954 73.4494 10.4833 73.2537 10.5225C73.0578 10.5591 72.856 10.5477 72.6655 10.4892C72.4573 10.4226 72.2656 10.3129 72.1028 10.1672Z" fill="white"/>
<path d="M74.1767 12.3179C74.0084 12.1176 73.9014 11.8731 73.8685 11.6137C73.8351 11.3467 73.8744 11.0756 73.9824 10.8291C74.1041 10.5501 74.2925 10.3053 74.531 10.116C74.7665 9.91166 75.0483 9.76778 75.352 9.69684C75.6087 9.63852 75.8767 9.65336 76.1253 9.73966C76.374 9.82596 76.5935 9.98025 76.7588 10.185C76.9075 10.3547 77.0101 10.5598 77.0567 10.7805C77.0907 10.9788 77.078 11.1822 77.0197 11.3747C76.9555 11.5756 76.8526 11.7618 76.7166 11.923C76.5696 12.0934 76.397 12.24 76.205 12.3575L74.7842 10.6387L75.0924 10.3895L76.2025 11.7313L76.026 11.6674C76.1164 11.6014 76.1995 11.526 76.2741 11.4425C76.3473 11.3619 76.4061 11.2694 76.448 11.169C76.4879 11.0733 76.5016 10.9688 76.4876 10.8661C76.4688 10.7478 76.4164 10.6374 76.3367 10.5479C76.2427 10.4245 76.1113 10.3349 75.962 10.2923C75.819 10.2567 75.6687 10.262 75.5285 10.3077C75.3707 10.3584 75.2246 10.4401 75.0988 10.5479L74.8827 10.7268C74.7474 10.8327 74.6329 10.9627 74.545 11.1102C74.4712 11.2368 74.4345 11.3816 74.4389 11.5281C74.4523 11.6813 74.5141 11.8263 74.6154 11.9421C74.7055 12.0589 74.8298 12.1446 74.9709 12.1875C75.0384 12.2049 75.1087 12.2083 75.1775 12.1975C75.2464 12.1867 75.3123 12.162 75.3712 12.1249L75.8265 12.6757C75.656 12.7779 75.4625 12.8355 75.2638 12.8431C75.0644 12.8481 74.8668 12.8043 74.6883 12.7153C74.4915 12.6205 74.3171 12.4851 74.1767 12.3179Z" fill="white"/>
<path d="M74.0542 14.5082L78.1619 12.1786L78.4484 12.6898L77.8371 13.1766L74.402 15.1178L74.0542 14.5082ZM76.1004 15.1319C75.9917 14.9528 75.935 14.747 75.9367 14.5376C75.9463 14.3343 76.0202 14.1392 76.1477 13.9805C76.3118 13.7786 76.5143 13.6114 76.7437 13.4885L76.8715 13.7172C76.7474 13.7828 76.6452 13.8831 76.5774 14.006C76.5167 14.1174 76.4888 14.2437 76.4968 14.3702C76.5023 14.505 76.5423 14.636 76.6131 14.7509C76.6838 14.8657 76.783 14.9603 76.901 15.0258C77.0423 15.1044 77.2023 15.1432 77.3639 15.1383C77.5645 15.1277 77.7593 15.0671 77.9304 14.9619C78.0999 14.8708 78.247 14.7433 78.3614 14.5887C78.4554 14.4602 78.5117 14.3079 78.5238 14.1491C78.531 14.0071 78.5002 13.8657 78.4345 13.7395C78.3689 13.6133 78.2708 13.5068 78.1504 13.431C78.0379 13.3638 77.9093 13.3285 77.7783 13.3287C77.6244 13.331 77.474 13.3752 77.3434 13.4565L77.2156 13.229C77.4517 13.0837 77.7174 12.9929 77.9931 12.9632C78.2071 12.9438 78.4221 12.9883 78.6108 13.091C78.7849 13.1896 78.929 13.3336 79.0277 13.5076C79.1506 13.7243 79.2117 13.9705 79.2042 14.2194C79.1926 14.4845 79.1115 14.7419 78.9689 14.9657C78.7955 15.2253 78.5615 15.4388 78.2873 15.5881C78.0182 15.7504 77.7124 15.8418 77.3984 15.8539C77.1306 15.8629 76.8653 15.7988 76.6311 15.6686C76.4051 15.5438 76.2189 15.3578 76.094 15.1319H76.1004Z" fill="white"/>
<path d="M77.5674 18.0877L81.9155 16.9222L82.0959 17.5995L78.4984 18.5682L77.6889 18.5414L77.5674 18.0877ZM77.8897 19.6327C77.8388 19.4435 77.8446 19.2436 77.9063 19.0576C77.9805 18.8554 78.1104 18.6782 78.281 18.5465C78.5059 18.3778 78.7632 18.2573 79.0368 18.1925L79.0944 18.4072C78.9415 18.445 78.8018 18.5236 78.6902 18.6347C78.5926 18.7352 78.5218 18.8587 78.4843 18.9938C78.4513 19.1194 78.4513 19.2515 78.4843 19.3771C78.5231 19.5225 78.6051 19.6526 78.7196 19.7503C78.8436 19.8515 78.9924 19.9177 79.1506 19.942C79.3413 19.971 79.5361 19.9575 79.721 19.9024C79.9023 19.8588 80.0715 19.7749 80.2159 19.657C80.3396 19.5565 80.4329 19.4238 80.4858 19.2736C80.5345 19.1291 80.5385 18.9732 80.4973 18.8263C80.461 18.6989 80.3948 18.5819 80.3042 18.4851C80.207 18.3886 80.0854 18.3202 79.9525 18.2871C79.7983 18.2512 79.6374 18.256 79.4857 18.3011L79.4281 18.0852C79.6908 18.007 79.9667 17.9831 80.2389 18.0149C80.453 18.0384 80.6543 18.1281 80.8148 18.2716C80.9753 18.415 81.0869 18.6049 81.1341 18.8148C81.2009 19.0539 81.1955 19.3072 81.1188 19.5433C81.0389 19.7916 80.8915 20.0128 80.6929 20.1822C80.4631 20.3801 80.1896 20.5207 79.8949 20.5924C79.5983 20.6789 79.2853 20.6938 78.9818 20.6359C78.7202 20.585 78.4772 20.4644 78.2784 20.287C78.0865 20.1125 77.9512 19.8846 77.8897 19.6327Z" fill="white"/>
<path d="M78.4175 22.6908C78.3904 22.4305 78.4388 22.1679 78.5569 21.9342C78.6822 21.6958 78.8684 21.4948 79.0966 21.3515C79.3545 21.19 79.6484 21.0948 79.9521 21.0742C80.2621 21.0368 80.5764 21.0758 80.8678 21.1879C81.114 21.2863 81.328 21.4514 81.4855 21.6646C81.6406 21.8754 81.7333 22.1257 81.7528 22.3866C81.7809 22.6098 81.7495 22.8363 81.662 23.0435C81.5809 23.2288 81.4548 23.3909 81.2949 23.515C81.1302 23.6441 80.9409 23.7385 80.7386 23.7923C80.5224 23.8505 80.2986 23.8751 80.0749 23.8652L79.8716 21.6442L80.2552 21.6084L80.4138 23.3412L80.3025 23.2007C80.4147 23.1975 80.5262 23.182 80.635 23.1547C80.7399 23.1287 80.8397 23.0855 80.9305 23.0269C81.0186 22.9718 81.0898 22.8935 81.1364 22.8007C81.1877 22.692 81.2068 22.571 81.1913 22.4518C81.1824 22.298 81.1236 22.1513 81.0238 22.0339C80.9256 21.9237 80.7984 21.8431 80.6568 21.8013C80.4974 21.7554 80.3307 21.7402 80.1657 21.7566L79.8869 21.7822C79.7146 21.7939 79.546 21.8372 79.3894 21.91C79.2562 21.9728 79.1439 22.0726 79.0659 22.1975C78.9954 22.3295 78.9641 22.4789 78.9756 22.6281C78.9872 22.7773 79.0411 22.92 79.1311 23.0396C79.1773 23.0921 79.2336 23.1348 79.2967 23.1651C79.3597 23.1954 79.4282 23.2127 79.4981 23.216L79.5633 23.924C79.3647 23.9126 79.1721 23.8515 79.0032 23.7463C78.8364 23.6382 78.6982 23.4913 78.6004 23.3182C78.495 23.1246 78.4326 22.9106 78.4175 22.6908Z" fill="white"/>
<path d="M78.4471 25.607C78.4527 25.4347 78.4964 25.2659 78.575 25.1124C78.6488 24.9671 78.7647 24.8474 78.9075 24.7687C79.0724 24.6791 79.2603 24.6408 79.4472 24.6588L82.606 24.8057L82.5753 25.5048L79.4408 25.3578C79.1645 25.345 79.0187 25.4715 79.0059 25.7335C79.0026 25.8143 79.0078 25.8953 79.0213 25.975C79.0383 26.0669 79.0618 26.1574 79.0916 26.246L78.5916 26.3239C78.5493 26.2077 78.5139 26.089 78.4855 25.9687C78.4557 25.8505 78.4428 25.7287 78.4471 25.607ZM81.3041 24.2805L81.7734 24.3022L81.6775 26.3635L81.2082 26.3418L81.3041 24.2805Z" fill="white"/>
<path d="M78.1618 27.8012C78.1867 27.6301 78.2497 27.4668 78.346 27.3232C78.4361 27.1879 78.5649 27.0828 78.7156 27.0216C78.8902 26.9536 79.0809 26.9381 79.2642 26.9769L82.3859 27.4945L82.2708 28.1845L79.1721 27.6734C78.8985 27.6274 78.739 27.7351 78.6938 27.9967C78.6824 28.0762 78.6785 28.1567 78.6823 28.2369C78.6874 28.3298 78.6998 28.4221 78.7194 28.513L78.2143 28.5321C78.1859 28.4117 78.1649 28.2896 78.1516 28.1666C78.1368 28.045 78.1402 27.9218 78.1618 27.8012ZM81.1544 26.8223L81.6186 26.8977L81.2784 28.9334L80.8168 28.858L81.1544 26.8223Z" fill="white"/>
<path d="M77.6249 29.9532C77.6998 29.7019 77.8454 29.4775 78.0443 29.3066C78.2499 29.1334 78.498 29.0182 78.7631 28.9731C79.0626 28.9225 79.37 28.9462 79.6583 29.0421C79.9578 29.1266 80.2325 29.2822 80.4589 29.4957C80.6503 29.6803 80.786 29.915 80.8502 30.173C80.9126 30.4261 80.9033 30.6916 80.8233 30.9398C80.7624 31.1564 80.6471 31.354 80.4883 31.5136C80.3426 31.6531 80.1647 31.7545 79.9703 31.8088C79.7682 31.8648 79.5567 31.8791 79.3488 31.8509C79.1271 31.8246 78.9111 31.7624 78.7094 31.6669L79.368 29.5379L79.7414 29.6516L79.2299 31.3129L79.1774 31.1391C79.2835 31.1777 79.3932 31.2055 79.5048 31.2222C79.6119 31.2408 79.7213 31.2408 79.8284 31.2222C79.9299 31.2039 80.025 31.1599 80.1046 31.0944C80.1922 31.0128 80.2551 30.9083 80.2862 30.7928C80.3354 30.6469 80.3354 30.4889 80.2862 30.343C80.2363 30.2028 80.1476 30.0796 80.0304 29.9877C79.9011 29.8838 79.7524 29.8065 79.5931 29.7602L79.3258 29.6785C79.1612 29.623 78.9876 29.5996 78.8142 29.6095C78.667 29.6165 78.5249 29.6657 78.405 29.7513C78.28 29.8432 78.1898 29.9748 78.1492 30.1245C78.0994 30.2635 78.0949 30.4147 78.1364 30.5564C78.1591 30.6228 78.1952 30.6839 78.2425 30.7358C78.2898 30.7877 78.3473 30.8293 78.4114 30.858L78.1991 31.5391C78.0183 31.4519 77.8629 31.32 77.7477 31.1557C77.6342 30.9923 77.5623 30.8037 77.5379 30.6062C77.5187 30.3848 77.5484 30.1619 77.6249 29.9532Z" fill="white"/>
<path d="M77.0541 31.7883L79.9444 33.1365L79.6451 33.7755L76.7549 32.4247L77.0541 31.7883ZM78.1066 32.8541C78.425 32.9922 78.7193 33.1798 78.9788 33.41C79.1601 33.5673 79.2957 33.7703 79.3714 33.9979C79.4256 34.1856 79.4087 34.3866 79.3241 34.5627C79.303 34.6131 79.2773 34.6614 79.2474 34.7071C79.2185 34.7495 79.1865 34.7897 79.1515 34.8272L78.5261 34.5129C78.5673 34.4638 78.6053 34.4121 78.6399 34.3582C78.6732 34.3074 78.7031 34.2545 78.7295 34.1998C78.8024 34.0627 78.825 33.9045 78.7934 33.7525C78.7551 33.5989 78.6708 33.4607 78.5517 33.3563C78.3974 33.2161 78.2211 33.1022 78.0299 33.019L78.1066 32.8541Z" fill="white"/>
<path d="M74.7394 35.6246C74.8407 35.4821 74.9716 35.3631 75.123 35.2757C75.2637 35.1945 75.4252 35.1567 75.5873 35.1671C75.7738 35.1823 75.9517 35.2521 76.0988 35.3677L78.6732 37.2003L78.2678 37.7702L75.7062 35.9479C75.4803 35.7869 75.2902 35.8141 75.1358 36.0297C75.089 36.0957 75.0492 36.1664 75.0169 36.2405C74.9826 36.3269 74.9535 36.4152 74.9299 36.5051L74.4683 36.2993C74.4959 36.1789 74.5309 36.0602 74.5731 35.9441C74.6127 35.83 74.6687 35.7224 74.7394 35.6246ZM77.8611 36.0552L78.2448 36.3287L77.0465 38.0105L76.6628 37.7383L77.8611 36.0552Z" fill="white"/>
<path d="M73.2231 37.4099C73.4073 37.2118 73.6387 37.0637 73.8958 36.9792C74.1503 36.8984 74.4231 36.8949 74.6797 36.969C74.9869 37.0624 75.2654 37.2321 75.4892 37.4623C75.7314 37.6784 75.9156 37.9517 76.0251 38.2571C76.1085 38.5103 76.1151 38.7823 76.0443 39.0392C75.9665 39.2969 75.8289 39.5325 75.6427 39.7268C75.4564 39.9211 75.2268 40.0687 74.9726 40.1574C74.719 40.2367 74.4476 40.2394 74.1925 40.1651C73.8833 40.068 73.6029 39.8959 73.3766 39.6641C73.1378 39.4502 72.9563 39.18 72.8484 38.8782C72.7632 38.6257 72.7539 38.3538 72.8215 38.0961C72.8953 37.8372 73.0335 37.6011 73.2231 37.4099ZM73.6797 37.8201C73.5666 37.9291 73.4904 38.0708 73.4617 38.2252C73.433 38.3796 73.4533 38.5391 73.5198 38.6814C73.6004 38.8619 73.7175 39.0237 73.8638 39.1568C74.0532 39.3651 74.3056 39.5056 74.5825 39.5568C74.6945 39.57 74.808 39.5557 74.9132 39.5152C75.0183 39.4747 75.1121 39.4091 75.1862 39.3242C75.2975 39.2146 75.374 39.0745 75.4061 38.9217C75.434 38.7651 75.4134 38.6037 75.3473 38.4591C75.2648 38.2761 75.1456 38.1121 74.9969 37.9773C74.8091 37.7711 74.5581 37.6331 74.2833 37.585C74.1722 37.5738 74.06 37.5893 73.9561 37.6302C73.8522 37.6711 73.7596 37.7362 73.686 37.8201H73.6797Z" fill="white"/>
<path d="M70.0898 40.1651L70.6474 40.7184L72.8356 43.733L72.2626 44.1483L69.623 40.5063L70.0898 40.1651ZM70.8572 39.5069C71.0629 39.3545 71.3087 39.2657 71.5644 39.2513C71.8307 39.2391 72.0955 39.2978 72.3317 39.4213C72.6032 39.5678 72.836 39.7768 73.0108 40.0309C73.1951 40.2718 73.3196 40.553 73.374 40.8513C73.42 41.1086 73.3957 41.3734 73.3036 41.6181C73.2149 41.8496 73.059 42.0493 72.856 42.1918C72.6858 42.3259 72.4778 42.4033 72.2612 42.4132C72.0447 42.423 71.8305 42.3648 71.6488 42.2468C71.4181 42.0998 71.2201 41.9072 71.0669 41.6807L71.2523 41.5465C71.341 41.6772 71.4628 41.7822 71.6053 41.8506C71.7005 41.892 71.803 41.9136 71.9068 41.9142C72.0106 41.9148 72.1134 41.8943 72.2091 41.8541C72.3047 41.8138 72.3912 41.7546 72.4632 41.68C72.5353 41.6054 72.5915 41.5169 72.6284 41.42C72.6815 41.2707 72.6916 41.1096 72.6578 40.9548C72.6192 40.7723 72.5411 40.6004 72.4289 40.4513C72.3183 40.2957 72.1763 40.1651 72.012 40.0679C71.8739 39.9863 71.7159 39.9443 71.5554 39.9465C71.4047 39.9495 71.2586 39.999 71.1372 40.0884C71.0319 40.1648 70.9496 40.2687 70.8994 40.3887C70.8446 40.5167 70.823 40.6565 70.8367 40.7951C70.8534 40.9514 70.9132 41.1 71.0093 41.2245L70.8213 41.3586C70.65 41.1367 70.5276 40.881 70.462 40.6085C70.4121 40.3966 70.424 40.1748 70.4965 39.9695C70.5629 39.7802 70.6868 39.6163 70.8508 39.5005L70.8572 39.5069Z" fill="white"/>
<path d="M67.1225 41.7663L67.5304 42.4053L68.0906 43.5759C68.1594 43.7518 68.288 43.8979 68.4538 43.9887C68.5372 44.0158 68.6256 44.0246 68.7128 44.0145C68.8 44.0044 68.8839 43.9755 68.9589 43.9299C69.0644 43.8821 69.1602 43.8154 69.2415 43.7331C69.3072 43.665 69.3517 43.5793 69.3694 43.4864C69.3851 43.3912 69.3694 43.2934 69.3247 43.2078L70.0204 42.873C70.1173 43.056 70.1514 43.2656 70.1176 43.4698C70.0703 43.665 69.9646 43.8411 69.8145 43.9746C69.625 44.1481 69.4092 44.2904 69.175 44.3963C68.9614 44.5032 68.7281 44.5649 68.4896 44.5778C68.2793 44.5896 68.0707 44.5345 67.8936 44.4206C67.6918 44.2793 67.534 44.0839 67.4383 43.857L66.561 42.0309L67.1225 41.7663ZM68.033 41.2335C68.2388 41.1251 68.468 41.0685 68.7006 41.0686C68.887 41.0722 69.0687 41.128 69.2249 41.2296C69.3681 41.3258 69.4832 41.458 69.5587 41.613C69.6453 41.775 69.6721 41.9623 69.6342 42.1421C69.5923 42.3205 69.4989 42.4827 69.3656 42.6085C69.2003 42.7662 69.0102 42.8958 68.8029 42.9919C68.6544 43.0631 68.4999 43.1213 68.3412 43.1657C68.1868 43.2098 68.0296 43.2436 67.8706 43.2666L67.6903 42.8909C67.8302 42.8747 67.9685 42.846 68.1033 42.8053C68.2352 42.7672 68.3635 42.7181 68.487 42.6583C68.6397 42.5928 68.7721 42.4878 68.8707 42.3542C68.9108 42.2928 68.9331 42.2213 68.9349 42.148C68.9367 42.0746 68.918 42.0022 68.8809 41.9389C68.8536 41.882 68.8143 41.8317 68.7657 41.7913C68.7172 41.751 68.6605 41.7215 68.5996 41.705C68.4315 41.6715 68.2569 41.7016 68.1098 41.7893C67.9739 41.8481 67.8583 41.9454 67.7772 42.0692C67.7044 42.1788 67.6604 42.3049 67.6494 42.436C67.6347 42.5499 67.6529 42.6656 67.7018 42.7695L67.5496 42.8424C67.4548 42.6515 67.4037 42.442 67.4 42.229C67.3938 42.0272 67.4438 41.8277 67.5445 41.6526C67.6598 41.4656 67.8305 41.319 68.033 41.2335Z" fill="white"/>
<path d="M67.1802 45.1924L66.4129 45.4147L64.8373 43.2103L64.9652 43.1732V45.8364L64.2759 46.0358L64.3884 42.0819C64.3848 41.7742 64.455 41.4701 64.593 41.195C64.7158 40.9842 64.9172 40.8307 65.1532 40.7682C65.2925 40.7274 65.4365 40.7047 65.5816 40.7005C65.7326 40.6944 65.8838 40.7068 66.0318 40.7375L66.207 41.3394C66.0834 41.2964 65.9541 41.2719 65.8233 41.2666C65.707 41.2623 65.5909 41.277 65.4793 41.31C65.3802 41.338 65.293 41.3977 65.2312 41.48C65.1675 41.5721 65.1239 41.6766 65.1033 41.7867C65.0767 41.9127 65.0639 42.0413 65.0649 42.1701V42.4947L67.1802 45.1924Z" fill="white"/>
<path d="M63.6056 43.3152C63.6302 43.441 63.604 43.5715 63.5327 43.6781C63.4945 43.732 63.4459 43.7777 63.3896 43.8124C63.3334 43.8471 63.2707 43.8701 63.2053 43.88C63.1399 43.8946 63.0723 43.896 63.0063 43.8839C62.9404 43.8718 62.8776 43.8466 62.8217 43.8097C62.7672 43.7755 62.7207 43.7301 62.6852 43.6766C62.6497 43.6231 62.6261 43.5626 62.6158 43.4992C62.602 43.4369 62.602 43.3723 62.616 43.31C62.6299 43.2478 62.6573 43.1893 62.6963 43.1388C62.7769 43.033 62.895 42.9621 63.0263 42.9407C63.0904 42.9263 63.1567 42.925 63.2213 42.9368C63.2859 42.9487 63.3475 42.9735 63.4023 43.0097C63.4557 43.0435 63.5015 43.0882 63.5365 43.1408C63.5715 43.1934 63.5951 43.2528 63.6056 43.3152Z" fill="white"/>
<path d="M62.5675 43.5055C62.5784 43.5685 62.5754 43.6332 62.5589 43.6949C62.5423 43.7567 62.5125 43.8142 62.4716 43.8633C62.4323 43.9158 62.3823 43.9594 62.3251 43.9913C62.2678 44.0232 62.2044 44.0427 62.1391 44.0486C62.0723 44.0596 62.004 44.0573 61.9382 44.0417C61.8723 44.0261 61.8102 43.9976 61.7554 43.9579C61.7037 43.9203 61.6602 43.8724 61.6279 43.8172C61.5955 43.762 61.575 43.7007 61.5674 43.6371C61.5575 43.5742 61.5612 43.5099 61.5785 43.4486C61.5957 43.3873 61.626 43.3304 61.6672 43.2819C61.7542 43.1796 61.8775 43.115 62.0112 43.1017C62.0758 43.091 62.1419 43.0933 62.2055 43.1085C62.2692 43.1236 62.3292 43.1513 62.3821 43.1899C62.4334 43.2266 62.4764 43.2736 62.5084 43.328C62.5403 43.3824 62.5605 43.4429 62.5675 43.5055Z" fill="white"/>
<path d="M61.5211 43.6435C61.527 43.7073 61.52 43.7715 61.5007 43.8325C61.4814 43.8935 61.4501 43.9501 61.4086 43.9988C61.3652 44.0483 61.3122 44.0886 61.2529 44.1171C61.1936 44.1457 61.1291 44.1619 61.0633 44.1649C60.9968 44.1719 60.9296 44.1654 60.8656 44.1458C60.8017 44.1263 60.7424 44.0941 60.6911 44.0512C60.6394 44.0115 60.5968 43.9612 60.5662 43.9036C60.5355 43.8461 60.5175 43.7827 60.5134 43.7177C60.5088 43.6542 60.5178 43.5904 60.5399 43.5307C60.5619 43.471 60.5965 43.4167 60.6412 43.3714C60.7329 43.2738 60.8591 43.2159 60.9929 43.2103C61.0583 43.2025 61.1246 43.2081 61.1877 43.2268C61.2508 43.2455 61.3094 43.2768 61.36 43.319C61.4075 43.3593 61.4463 43.4089 61.474 43.4647C61.5017 43.5205 61.5177 43.5813 61.5211 43.6435Z" fill="white"/>
<path d="M60.4622 43.7215C60.4653 43.7849 60.4556 43.8482 60.4337 43.9077C60.4117 43.9672 60.3779 44.0217 60.3343 44.0678C60.2879 44.1144 60.2327 44.1513 60.1718 44.1763C60.111 44.2013 60.0458 44.2139 59.98 44.2135C59.8461 44.2205 59.7147 44.1746 59.6143 44.0857C59.5672 44.0426 59.5293 43.9904 59.503 43.9323C59.4766 43.8742 59.4624 43.8113 59.461 43.7475C59.4597 43.6837 59.4714 43.6203 59.4953 43.5611C59.5192 43.502 59.5549 43.4483 59.6002 43.4033C59.6976 43.3115 59.827 43.2615 59.9609 43.264C60.0261 43.2599 60.0915 43.2692 60.153 43.2911C60.2146 43.3131 60.271 43.3473 60.319 43.3918C60.3636 43.4344 60.3993 43.4855 60.4239 43.5422C60.4485 43.5988 60.4615 43.6598 60.4622 43.7215Z" fill="white"/>
</g>
<defs>
<clipPath id="clip0_101_124">
<rect width="82.6047" height="48" fill="white"/>
</clipPath>
</defs>
</svg>
