<svg width="24" height="24" viewBox="0 0 24 24" fill="none" xmlns="http://www.w3.org/2000/svg">
<path d="M11.8722 21.765C10.6822 21.765 9.88822 21.203 9.17922 20.708C8.67522 20.351 8.20322 20.012 7.64622 19.918C7.381 19.8726 7.11231 19.8505 6.84322 19.852C6.37122 19.852 5.99622 19.923 5.72922 19.977C5.55922 20.007 5.41722 20.035 5.30522 20.035C5.18922 20.035 5.04222 20.003 4.98522 19.807C4.93522 19.647 4.90422 19.495 4.87322 19.348C4.79322 18.978 4.72622 18.751 4.58722 18.728C3.09822 18.501 2.20722 18.158 2.03322 17.752C2.01922 17.708 2.00222 17.662 2.00222 17.627C1.99222 17.503 2.08222 17.4 2.20722 17.377C3.38822 17.182 4.44922 16.553 5.34522 15.519C6.04122 14.716 6.38022 13.94 6.41122 13.856C6.41122 13.846 6.42022 13.846 6.42022 13.846C6.59089 13.4947 6.62489 13.1963 6.52222 12.951C6.33022 12.491 5.69722 12.295 5.26522 12.161C5.15422 12.131 5.06022 12.095 4.98022 12.068C4.61022 11.921 3.99422 11.608 4.07522 11.176C4.13322 10.864 4.54722 10.641 4.88622 10.641C4.98022 10.6397 5.06022 10.6563 5.12622 10.691C5.50622 10.864 5.84922 10.953 6.14322 10.953C6.50922 10.953 6.68322 10.815 6.72722 10.771C6.71791 10.5732 6.70624 10.3755 6.69222 10.178C6.60222 8.813 6.50022 7.119 6.93222 6.148C8.23022 3.241 10.9852 3.008 11.8012 3.008L12.1572 3H12.2072C13.0222 3 15.7772 3.227 17.0752 6.139C17.5122 7.11 17.4052 8.809 17.3152 10.169L17.3062 10.236C17.2982 10.418 17.2842 10.592 17.2762 10.771C17.3202 10.806 17.4802 10.94 17.8102 10.944C18.0962 10.936 18.4082 10.842 18.7642 10.681C18.8627 10.6383 18.9688 10.6158 19.0762 10.615C19.2012 10.615 19.3262 10.645 19.4332 10.681H19.4422C19.7412 10.793 19.9372 11.002 19.9372 11.221C19.9462 11.426 19.7852 11.738 19.0232 12.046C18.9432 12.076 18.8492 12.113 18.7382 12.139C18.3142 12.269 17.6812 12.474 17.4802 12.929C17.3692 13.169 17.4132 13.477 17.5832 13.825C17.5832 13.833 17.5922 13.833 17.5922 13.833C17.6412 13.958 18.9292 16.883 21.7962 17.36C21.8548 17.3699 21.9079 17.4006 21.9456 17.4466C21.9832 17.4926 22.003 17.5506 22.0012 17.61C22.0019 17.6547 21.9916 17.6977 21.9702 17.739C21.7962 18.149 20.9132 18.483 19.4152 18.715C19.2772 18.737 19.2102 18.965 19.1302 19.335C19.0984 19.4892 19.0614 19.6423 19.0192 19.794C18.9742 19.941 18.8802 20.021 18.7192 20.021H18.6982C18.5556 20.0184 18.4136 20.002 18.2742 19.972C17.9077 19.894 17.5339 19.8551 17.1592 19.856C16.8905 19.8567 16.6223 19.8792 16.3572 19.923C15.8042 20.013 15.3272 20.356 14.8232 20.713C14.1052 21.203 13.3072 21.765 12.1262 21.765H11.8722Z" fill="white"/>
</svg>
